%TF.GenerationSoftware,KiCad,Pcbnew,7.0.1*%
%TF.CreationDate,2023-10-30T13:33:15+01:00*%
%TF.ProjectId,schematic,73636865-6d61-4746-9963-2e6b69636164,rev?*%
%TF.SameCoordinates,Original*%
%TF.FileFunction,Copper,L1,Top*%
%TF.FilePolarity,Positive*%
%FSLAX46Y46*%
G04 Gerber Fmt 4.6, Leading zero omitted, Abs format (unit mm)*
G04 Created by KiCad (PCBNEW 7.0.1) date 2023-10-30 13:33:15*
%MOMM*%
%LPD*%
G01*
G04 APERTURE LIST*
G04 Aperture macros list*
%AMRoundRect*
0 Rectangle with rounded corners*
0 $1 Rounding radius*
0 $2 $3 $4 $5 $6 $7 $8 $9 X,Y pos of 4 corners*
0 Add a 4 corners polygon primitive as box body*
4,1,4,$2,$3,$4,$5,$6,$7,$8,$9,$2,$3,0*
0 Add four circle primitives for the rounded corners*
1,1,$1+$1,$2,$3*
1,1,$1+$1,$4,$5*
1,1,$1+$1,$6,$7*
1,1,$1+$1,$8,$9*
0 Add four rect primitives between the rounded corners*
20,1,$1+$1,$2,$3,$4,$5,0*
20,1,$1+$1,$4,$5,$6,$7,0*
20,1,$1+$1,$6,$7,$8,$9,0*
20,1,$1+$1,$8,$9,$2,$3,0*%
G04 Aperture macros list end*
%TA.AperFunction,ComponentPad*%
%ADD10R,2.000000X2.000000*%
%TD*%
%TA.AperFunction,ComponentPad*%
%ADD11C,2.000000*%
%TD*%
%TA.AperFunction,ComponentPad*%
%ADD12C,1.800000*%
%TD*%
%TA.AperFunction,ComponentPad*%
%ADD13C,1.600000*%
%TD*%
%TA.AperFunction,ComponentPad*%
%ADD14O,1.600000X1.600000*%
%TD*%
%TA.AperFunction,ComponentPad*%
%ADD15C,1.500000*%
%TD*%
%TA.AperFunction,ComponentPad*%
%ADD16R,2.400000X1.600000*%
%TD*%
%TA.AperFunction,ComponentPad*%
%ADD17O,2.400000X1.600000*%
%TD*%
%TA.AperFunction,SMDPad,CuDef*%
%ADD18RoundRect,0.150000X-0.725000X-0.150000X0.725000X-0.150000X0.725000X0.150000X-0.725000X0.150000X0*%
%TD*%
%TA.AperFunction,SMDPad,CuDef*%
%ADD19R,1.400000X0.300000*%
%TD*%
%TA.AperFunction,ViaPad*%
%ADD20C,0.800000*%
%TD*%
%TA.AperFunction,Conductor*%
%ADD21C,0.250000*%
%TD*%
G04 APERTURE END LIST*
D10*
%TO.P,U3,1,3V3*%
%TO.N,+3.3V*%
X155935000Y-71120000D03*
D11*
%TO.P,U3,2,GND*%
%TO.N,GND*%
X158475000Y-71120000D03*
%TO.P,U3,3,D15*%
%TO.N,unconnected-(U3-D15-Pad3)*%
X161015000Y-71120000D03*
%TO.P,U3,4,D2*%
%TO.N,unconnected-(U3-D2-Pad4)*%
X163555000Y-71120000D03*
%TO.P,U3,5,D4*%
%TO.N,Net-(U3-D4)*%
X166095000Y-71120000D03*
%TO.P,U3,6,RX2*%
%TO.N,unconnected-(U3-RX2-Pad6)*%
X168635000Y-71120000D03*
%TO.P,U3,7,TX2*%
%TO.N,unconnected-(U3-TX2-Pad7)*%
X171175000Y-71120000D03*
%TO.P,U3,8,D5*%
%TO.N,unconnected-(U3-D5-Pad8)*%
X173715000Y-71120000D03*
%TO.P,U3,9,D18*%
%TO.N,Net-(U3-D18)*%
X176255000Y-71120000D03*
%TO.P,U3,10,D19*%
%TO.N,unconnected-(U3-D19-Pad10)*%
X178795000Y-71120000D03*
%TO.P,U3,11,D21*%
%TO.N,/SDA*%
X181335000Y-71120000D03*
%TO.P,U3,12,RX0*%
%TO.N,unconnected-(U3-RX0-Pad12)*%
X183875000Y-71120000D03*
%TO.P,U3,13,TX0*%
%TO.N,unconnected-(U3-TX0-Pad13)*%
X186415000Y-71120000D03*
%TO.P,U3,14,D22*%
%TO.N,/SCL*%
X188955000Y-71120000D03*
%TO.P,U3,15,D23*%
%TO.N,unconnected-(U3-D23-Pad15)*%
X191495000Y-71120000D03*
%TO.P,U3,16,EN*%
%TO.N,unconnected-(U3-EN-Pad16)*%
X191495000Y-45720000D03*
%TO.P,U3,17,VP*%
%TO.N,unconnected-(U3-VP-Pad17)*%
X188955000Y-45720000D03*
%TO.P,U3,18,VN*%
%TO.N,unconnected-(U3-VN-Pad18)*%
X186415000Y-45720000D03*
%TO.P,U3,19,D34*%
%TO.N,unconnected-(U3-D34-Pad19)*%
X183875000Y-45720000D03*
%TO.P,U3,20,D35*%
%TO.N,unconnected-(U3-D35-Pad20)*%
X181335000Y-45720000D03*
%TO.P,U3,21,D32*%
%TO.N,unconnected-(U3-D32-Pad21)*%
X178795000Y-45720000D03*
%TO.P,U3,22,D33*%
%TO.N,unconnected-(U3-D33-Pad22)*%
X176255000Y-45720000D03*
%TO.P,U3,23,D25*%
%TO.N,unconnected-(U3-D25-Pad23)*%
X173715000Y-45720000D03*
%TO.P,U3,24,D26*%
%TO.N,unconnected-(U3-D26-Pad24)*%
X171175000Y-45720000D03*
%TO.P,U3,25,D27*%
%TO.N,unconnected-(U3-D27-Pad25)*%
X168635000Y-45720000D03*
%TO.P,U3,26,D14*%
%TO.N,unconnected-(U3-D14-Pad26)*%
X166095000Y-45720000D03*
%TO.P,U3,27,D12*%
%TO.N,unconnected-(U3-D12-Pad27)*%
X163555000Y-45720000D03*
%TO.P,U3,28,D13*%
%TO.N,unconnected-(U3-D13-Pad28)*%
X161015000Y-45720000D03*
%TO.P,U3,29,GND*%
%TO.N,GND*%
X158475000Y-45720000D03*
%TO.P,U3,30,VIN*%
%TO.N,+5V*%
X155935000Y-45720000D03*
%TD*%
D12*
%TO.P,J6,1,Pin_1*%
%TO.N,+3.3V*%
X181610000Y-94615000D03*
%TD*%
%TO.P,J5,1,Pin_1*%
%TO.N,+5V*%
X173990000Y-99060000D03*
%TD*%
D13*
%TO.P,C5,1*%
%TO.N,Net-(U1-1B3)*%
X161965000Y-91440000D03*
%TO.P,C5,2*%
%TO.N,GND*%
X166965000Y-91440000D03*
%TD*%
%TO.P,C12,1*%
%TO.N,+3.3V*%
X177125000Y-91440000D03*
%TO.P,C12,2*%
%TO.N,GND*%
X172125000Y-91440000D03*
%TD*%
%TO.P,R5,1*%
%TO.N,Net-(U1-S0)*%
X159385000Y-81915000D03*
D14*
%TO.P,R5,2*%
%TO.N,Net-(U3-D18)*%
X169545000Y-81915000D03*
%TD*%
D13*
%TO.P,C7,1*%
%TO.N,Net-(U1-1B3)*%
X146685000Y-106640000D03*
%TO.P,C7,2*%
%TO.N,Net-(C16-Pad1)*%
X146685000Y-104140000D03*
%TD*%
D15*
%TO.P,Y1,1,1*%
%TO.N,Net-(U4-XB)*%
X179615000Y-82550000D03*
%TO.P,Y1,2,2*%
%TO.N,Net-(U4-XA)*%
X174735000Y-82550000D03*
%TD*%
D13*
%TO.P,R4,1*%
%TO.N,Net-(C16-Pad1)*%
X156845000Y-100330000D03*
D14*
%TO.P,R4,2*%
%TO.N,Net-(U1-1B3)*%
X146685000Y-100330000D03*
%TD*%
D12*
%TO.P,J1,1,Pin_1*%
%TO.N,Net-(J1-Pin_1)*%
X173355000Y-95250000D03*
%TD*%
D13*
%TO.P,C10,1*%
%TO.N,+5V*%
X161965000Y-102235000D03*
%TO.P,C10,2*%
%TO.N,GND*%
X166965000Y-102235000D03*
%TD*%
D12*
%TO.P,J2,1,Pin_1*%
%TO.N,Net-(J2-Pin_1)*%
X181610000Y-88900000D03*
%TD*%
D13*
%TO.P,C9,1*%
%TO.N,Net-(U3-D4)*%
X146705000Y-85090000D03*
%TO.P,C9,2*%
%TO.N,Net-(U1-S1)*%
X149205000Y-85090000D03*
%TD*%
D16*
%TO.P,U2,1*%
%TO.N,Net-(C16-Pad1)*%
X149870000Y-104150000D03*
D17*
%TO.P,U2,2,-*%
%TO.N,Net-(U1-1B3)*%
X149870000Y-106690000D03*
%TO.P,U2,3,+*%
%TO.N,Net-(U1-1B2)*%
X149870000Y-109230000D03*
%TO.P,U2,4,V-*%
%TO.N,GND*%
X149870000Y-111770000D03*
%TO.P,U2,5,+*%
%TO.N,Net-(U1-1B1)*%
X157490000Y-111770000D03*
%TO.P,U2,6,-*%
%TO.N,Net-(U1-1B4)*%
X157490000Y-109230000D03*
%TO.P,U2,7*%
%TO.N,Net-(C15-Pad1)*%
X157490000Y-106690000D03*
%TO.P,U2,8,V+*%
%TO.N,+5V*%
X157490000Y-104150000D03*
%TD*%
D13*
%TO.P,C6,1*%
%TO.N,Net-(U1-1B4)*%
X160675000Y-111760000D03*
%TO.P,C6,2*%
%TO.N,Net-(C15-Pad1)*%
X163175000Y-111760000D03*
%TD*%
%TO.P,C11,1*%
%TO.N,+3.3V*%
X159345000Y-78740000D03*
%TO.P,C11,2*%
%TO.N,GND*%
X154345000Y-78740000D03*
%TD*%
%TO.P,R2,1*%
%TO.N,Net-(U1-1A)*%
X156845000Y-96520000D03*
D14*
%TO.P,R2,2*%
%TO.N,GND*%
X146685000Y-96520000D03*
%TD*%
D13*
%TO.P,C1,1*%
%TO.N,Net-(U1-1A)*%
X164485000Y-95250000D03*
%TO.P,C1,2*%
%TO.N,Net-(J1-Pin_1)*%
X166985000Y-95250000D03*
%TD*%
D12*
%TO.P,J3,1,Pin_1*%
%TO.N,Net-(J3-Pin_1)*%
X173990000Y-111760000D03*
%TD*%
%TO.P,J4,1,Pin_1*%
%TO.N,Net-(J4-Pin_1)*%
X173990000Y-105410000D03*
%TD*%
D13*
%TO.P,C15,1*%
%TO.N,Net-(C15-Pad1)*%
X165775000Y-111760000D03*
%TO.P,C15,2*%
%TO.N,Net-(J3-Pin_1)*%
X170775000Y-111760000D03*
%TD*%
%TO.P,R6,1*%
%TO.N,Net-(U1-S1)*%
X156845000Y-81915000D03*
D14*
%TO.P,R6,2*%
%TO.N,Net-(U3-D4)*%
X146685000Y-81915000D03*
%TD*%
D13*
%TO.P,R1,1*%
%TO.N,+5V*%
X170815000Y-99060000D03*
D14*
%TO.P,R1,2*%
%TO.N,Net-(U1-1A)*%
X160655000Y-99060000D03*
%TD*%
D13*
%TO.P,C14,1*%
%TO.N,Net-(U4-XB)*%
X181570000Y-78105000D03*
%TO.P,C14,2*%
%TO.N,GND*%
X179070000Y-78105000D03*
%TD*%
%TO.P,C2,1*%
%TO.N,Net-(U1-1B1)*%
X151725000Y-91440000D03*
%TO.P,C2,2*%
%TO.N,GND*%
X146725000Y-91440000D03*
%TD*%
%TO.P,C3,1*%
%TO.N,Net-(U1-1B4)*%
X161965000Y-88265000D03*
%TO.P,C3,2*%
%TO.N,GND*%
X166965000Y-88265000D03*
%TD*%
%TO.P,R3,1*%
%TO.N,Net-(C15-Pad1)*%
X170815000Y-108585000D03*
D14*
%TO.P,R3,2*%
%TO.N,Net-(U1-1B4)*%
X160655000Y-108585000D03*
%TD*%
D13*
%TO.P,C16,1*%
%TO.N,Net-(C16-Pad1)*%
X161965000Y-105410000D03*
%TO.P,C16,2*%
%TO.N,Net-(J4-Pin_1)*%
X166965000Y-105410000D03*
%TD*%
%TO.P,C13,1*%
%TO.N,Net-(U4-XA)*%
X173395000Y-78105000D03*
%TO.P,C13,2*%
%TO.N,GND*%
X175895000Y-78105000D03*
%TD*%
D18*
%TO.P,U1,1,1~{OE}*%
%TO.N,GND*%
X154270000Y-85090000D03*
%TO.P,U1,2,S1*%
%TO.N,Net-(U1-S1)*%
X154270000Y-86360000D03*
%TO.P,U1,3,1B4*%
%TO.N,Net-(U1-1B4)*%
X154270000Y-87630000D03*
%TO.P,U1,4,1B3*%
%TO.N,Net-(U1-1B3)*%
X154270000Y-88900000D03*
%TO.P,U1,5,1B2*%
%TO.N,Net-(U1-1B2)*%
X154270000Y-90170000D03*
%TO.P,U1,6,1B1*%
%TO.N,Net-(U1-1B1)*%
X154270000Y-91440000D03*
%TO.P,U1,7,1A*%
%TO.N,Net-(U1-1A)*%
X154270000Y-92710000D03*
%TO.P,U1,8,GND*%
%TO.N,GND*%
X154270000Y-93980000D03*
%TO.P,U1,9,2A*%
%TO.N,Net-(U1-1A)*%
X159420000Y-93980000D03*
%TO.P,U1,10,2B1*%
%TO.N,Net-(U1-1B1)*%
X159420000Y-92710000D03*
%TO.P,U1,11,2B2*%
%TO.N,Net-(U1-1B2)*%
X159420000Y-91440000D03*
%TO.P,U1,12,2B3*%
%TO.N,Net-(U1-1B3)*%
X159420000Y-90170000D03*
%TO.P,U1,13,2B4*%
%TO.N,Net-(U1-1B4)*%
X159420000Y-88900000D03*
%TO.P,U1,14,S0*%
%TO.N,Net-(U1-S0)*%
X159420000Y-87630000D03*
%TO.P,U1,15,2~{OE}*%
%TO.N,GND*%
X159420000Y-86360000D03*
%TO.P,U1,16,VCC*%
%TO.N,+5V*%
X159420000Y-85090000D03*
%TD*%
D13*
%TO.P,C4,1*%
%TO.N,Net-(U1-1B2)*%
X151725000Y-88265000D03*
%TO.P,C4,2*%
%TO.N,GND*%
X146725000Y-88265000D03*
%TD*%
D19*
%TO.P,U4,1,VDD*%
%TO.N,+3.3V*%
X172130000Y-86495000D03*
%TO.P,U4,2,XA*%
%TO.N,Net-(U4-XA)*%
X172130000Y-86995000D03*
%TO.P,U4,3,XB*%
%TO.N,Net-(U4-XB)*%
X172130000Y-87495000D03*
%TO.P,U4,4,SCL*%
%TO.N,/SCL*%
X172130000Y-87995000D03*
%TO.P,U4,5,SDA*%
%TO.N,/SDA*%
X172130000Y-88495000D03*
%TO.P,U4,6,CLK2*%
%TO.N,Net-(J2-Pin_1)*%
X176530000Y-88495000D03*
%TO.P,U4,7,VDDO*%
%TO.N,+3.3V*%
X176530000Y-87995000D03*
%TO.P,U4,8,GND*%
%TO.N,GND*%
X176530000Y-87495000D03*
%TO.P,U4,9,CLK1*%
%TO.N,Net-(U1-S1)*%
X176530000Y-86995000D03*
%TO.P,U4,10,CLK0*%
%TO.N,Net-(U1-S0)*%
X176530000Y-86495000D03*
%TD*%
D13*
%TO.P,C8,1*%
%TO.N,Net-(U3-D18)*%
X166985000Y-85090000D03*
%TO.P,C8,2*%
%TO.N,Net-(U1-S0)*%
X164485000Y-85090000D03*
%TD*%
D20*
%TO.N,+3.3V*%
X172130000Y-85724200D03*
%TO.N,Net-(U1-S1)*%
X174625000Y-90037500D03*
%TD*%
D21*
%TO.N,/SDA*%
X182720100Y-69734900D02*
X181335000Y-71120000D01*
X192042700Y-69734900D02*
X182720100Y-69734900D01*
X192841600Y-70533800D02*
X192042700Y-69734900D01*
X192841600Y-71647233D02*
X192841600Y-70533800D01*
X191593833Y-72895000D02*
X192841600Y-71647233D01*
X184916396Y-72895000D02*
X191593833Y-72895000D01*
X183145000Y-80540280D02*
X183145000Y-74666396D01*
X177606700Y-83676500D02*
X180008780Y-83676500D01*
X183145000Y-74666396D02*
X184916396Y-72895000D01*
X173809300Y-87473900D02*
X177606700Y-83676500D01*
X173809300Y-88029600D02*
X173809300Y-87473900D01*
X180008780Y-83676500D02*
X183145000Y-80540280D01*
X173343900Y-88495000D02*
X173809300Y-88029600D01*
X172130000Y-88495000D02*
X173343900Y-88495000D01*
%TO.N,/SCL*%
X187630000Y-72445000D02*
X188955000Y-71120000D01*
X184730000Y-72445000D02*
X187630000Y-72445000D01*
X182695000Y-74480000D02*
X184730000Y-72445000D01*
X182695000Y-78570991D02*
X182695000Y-74480000D01*
X180817691Y-80448300D02*
X182695000Y-78570991D01*
X173156900Y-87485000D02*
X180193600Y-80448300D01*
X173156900Y-87995000D02*
X173156900Y-87485000D01*
X180193600Y-80448300D02*
X180817691Y-80448300D01*
X172130000Y-87995000D02*
X173156900Y-87995000D01*
%TO.N,Net-(C16-Pad1)*%
X161925000Y-105410000D02*
X161965000Y-105410000D01*
X156845000Y-100330000D02*
X161925000Y-105410000D01*
%TO.N,Net-(J2-Pin_1)*%
X175991900Y-89033100D02*
X176530000Y-88495000D01*
X175991900Y-91932500D02*
X175991900Y-89033100D01*
X176629400Y-92570000D02*
X175991900Y-91932500D01*
X177940000Y-92570000D02*
X176629400Y-92570000D01*
X181610000Y-88900000D02*
X177940000Y-92570000D01*
%TO.N,Net-(U4-XB)*%
X180424000Y-76959000D02*
X181570000Y-78105000D01*
X172921400Y-76959000D02*
X180424000Y-76959000D01*
X171103100Y-78777300D02*
X172921400Y-76959000D01*
X171103100Y-87495000D02*
X171103100Y-78777300D01*
X172130000Y-87495000D02*
X171103100Y-87495000D01*
%TO.N,Net-(U4-XA)*%
X173395000Y-81210000D02*
X173395000Y-78105000D01*
X174735000Y-82550000D02*
X173395000Y-81210000D01*
X174735000Y-85202300D02*
X174735000Y-82550000D01*
X172942300Y-86995000D02*
X174735000Y-85202300D01*
X172130000Y-86995000D02*
X172942300Y-86995000D01*
%TO.N,+3.3V*%
X177556900Y-91008100D02*
X177125000Y-91440000D01*
X177556900Y-87995000D02*
X177556900Y-91008100D01*
X176530000Y-87995000D02*
X177556900Y-87995000D01*
X155935000Y-71120000D02*
X155935000Y-72446900D01*
X155935000Y-75330000D02*
X159345000Y-78740000D01*
X155935000Y-72446900D02*
X155935000Y-75330000D01*
X172130000Y-85724200D02*
X172130000Y-86495000D01*
%TO.N,Net-(U1-1B1)*%
X157490000Y-111770000D02*
X155963100Y-111770000D01*
X155515500Y-111322400D02*
X155963100Y-111770000D01*
X155515500Y-93659700D02*
X155515500Y-111322400D01*
X155200800Y-93345000D02*
X155515500Y-93659700D01*
X153296100Y-93345000D02*
X155200800Y-93345000D01*
X153005800Y-93054700D02*
X153296100Y-93345000D01*
X153005800Y-91440000D02*
X153005800Y-93054700D01*
X154270000Y-91440000D02*
X153005800Y-91440000D01*
X153005800Y-91440000D02*
X151725000Y-91440000D01*
X154912500Y-92082500D02*
X154270000Y-91440000D01*
X158792500Y-92082500D02*
X154912500Y-92082500D01*
X159420000Y-92710000D02*
X158792500Y-92082500D01*
%TO.N,Net-(U1-1B2)*%
X151396900Y-94607500D02*
X151396900Y-109230000D01*
X150588600Y-93799200D02*
X151396900Y-94607500D01*
X150588600Y-89401400D02*
X150588600Y-93799200D01*
X151725000Y-88265000D02*
X150588600Y-89401400D01*
X149870000Y-109230000D02*
X151396900Y-109230000D01*
X153630000Y-90170000D02*
X151725000Y-88265000D01*
X154270000Y-90170000D02*
X153630000Y-90170000D01*
X154912500Y-90812500D02*
X154270000Y-90170000D01*
X158792500Y-90812500D02*
X154912500Y-90812500D01*
X159420000Y-91440000D02*
X158792500Y-90812500D01*
%TO.N,Net-(U3-D4)*%
X146705000Y-83061900D02*
X146685000Y-83041900D01*
X146705000Y-85090000D02*
X146705000Y-83061900D01*
X146685000Y-81915000D02*
X146685000Y-83041900D01*
%TO.N,Net-(U1-S1)*%
X150475000Y-86360000D02*
X149205000Y-85090000D01*
X154270000Y-86360000D02*
X150475000Y-86360000D01*
X174625000Y-91206300D02*
X174625000Y-90037500D01*
X176459300Y-93040600D02*
X174625000Y-91206300D01*
X179269700Y-93040600D02*
X176459300Y-93040600D01*
X182856600Y-89453700D02*
X179269700Y-93040600D01*
X182856600Y-88359000D02*
X182856600Y-89453700D01*
X181492600Y-86995000D02*
X182856600Y-88359000D01*
X176530000Y-86995000D02*
X181492600Y-86995000D01*
%TO.N,Net-(U3-D18)*%
X169545000Y-77830000D02*
X176255000Y-71120000D01*
X169545000Y-81915000D02*
X169545000Y-77830000D01*
%TO.N,Net-(U1-S0)*%
X159054700Y-87630000D02*
X159420000Y-87630000D01*
X158213800Y-86789100D02*
X159054700Y-87630000D01*
X158213800Y-83086200D02*
X158213800Y-86789100D01*
X159385000Y-81915000D02*
X158213800Y-83086200D01*
X176530000Y-86495000D02*
X175503100Y-86495000D01*
X174420500Y-87577600D02*
X175503100Y-86495000D01*
X174420500Y-88136800D02*
X174420500Y-87577600D01*
X173552900Y-89004400D02*
X174420500Y-88136800D01*
X170430600Y-89004400D02*
X173552900Y-89004400D01*
X167794200Y-86368000D02*
X170430600Y-89004400D01*
X165763000Y-86368000D02*
X167794200Y-86368000D01*
X164485000Y-85090000D02*
X165763000Y-86368000D01*
%TO.N,Net-(U1-1B3)*%
X158792500Y-89542500D02*
X159420000Y-90170000D01*
X154912500Y-89542500D02*
X158792500Y-89542500D01*
X154270000Y-88900000D02*
X154912500Y-89542500D01*
X160695000Y-90170000D02*
X161965000Y-91440000D01*
X159420000Y-90170000D02*
X160695000Y-90170000D01*
X145557400Y-105512400D02*
X146685000Y-106640000D01*
X145557400Y-102584500D02*
X145557400Y-105512400D01*
X146685000Y-101456900D02*
X145557400Y-102584500D01*
X146685000Y-100330000D02*
X146685000Y-101456900D01*
%TO.N,Net-(U1-1B4)*%
X160675000Y-109731900D02*
X160655000Y-109711900D01*
X160675000Y-111760000D02*
X160675000Y-109731900D01*
X160655000Y-108585000D02*
X160655000Y-109711900D01*
X158364800Y-88900000D02*
X159420000Y-88900000D01*
X157094800Y-87630000D02*
X158364800Y-88900000D01*
X154270000Y-87630000D02*
X157094800Y-87630000D01*
X160655000Y-108585000D02*
X160655000Y-107458100D01*
X161534400Y-107458100D02*
X160655000Y-107458100D01*
X163105400Y-105887100D02*
X161534400Y-107458100D01*
X163105400Y-90675400D02*
X163105400Y-105887100D01*
X161330000Y-88900000D02*
X163105400Y-90675400D01*
X159420000Y-88900000D02*
X161330000Y-88900000D01*
X161330000Y-88900000D02*
X161965000Y-88265000D01*
%TO.N,GND*%
X176530000Y-87495000D02*
X175503100Y-87495000D01*
X149870000Y-111770000D02*
X148343100Y-111770000D01*
X147891200Y-111318100D02*
X148343100Y-111770000D01*
X147891200Y-98853100D02*
X147891200Y-111318100D01*
X146685000Y-97646900D02*
X147891200Y-98853100D01*
X146685000Y-97083400D02*
X146685000Y-97646900D01*
X146685000Y-97083400D02*
X146685000Y-96520000D01*
X165811900Y-92593100D02*
X166965000Y-91440000D01*
X165811900Y-101081900D02*
X165811900Y-92593100D01*
X166965000Y-102235000D02*
X165811900Y-101081900D01*
X166965000Y-88265000D02*
X166965000Y-91440000D01*
X158475000Y-45720000D02*
X158475000Y-71120000D01*
X154270000Y-108896900D02*
X151396900Y-111770000D01*
X154270000Y-93980000D02*
X154270000Y-108896900D01*
X149870000Y-111770000D02*
X151396900Y-111770000D01*
X159888100Y-86360000D02*
X159420000Y-86360000D01*
X160636600Y-87108500D02*
X159888100Y-86360000D01*
X147995000Y-86995000D02*
X146725000Y-88265000D01*
X155500800Y-86995000D02*
X147995000Y-86995000D01*
X154345000Y-85090000D02*
X154345000Y-78740000D01*
X154270000Y-85090000D02*
X154345000Y-85090000D01*
X155500800Y-86039800D02*
X155500800Y-86995000D01*
X154551000Y-85090000D02*
X155500800Y-86039800D01*
X154345000Y-85090000D02*
X154551000Y-85090000D01*
X160636600Y-87998200D02*
X160636600Y-87108500D01*
X160369800Y-88265000D02*
X160636600Y-87998200D01*
X158444100Y-88265000D02*
X160369800Y-88265000D01*
X157174100Y-86995000D02*
X158444100Y-88265000D01*
X155500800Y-86995000D02*
X157174100Y-86995000D01*
X175503100Y-88061900D02*
X175503100Y-87495000D01*
X172125000Y-91440000D02*
X175503100Y-88061900D01*
X165686800Y-88265000D02*
X166965000Y-88265000D01*
X164530300Y-87108500D02*
X165686800Y-88265000D01*
X160636600Y-87108500D02*
X164530300Y-87108500D01*
X146725000Y-91440000D02*
X146725000Y-88265000D01*
X146685000Y-91480000D02*
X146685000Y-96520000D01*
X146725000Y-91440000D02*
X146685000Y-91480000D01*
%TO.N,Net-(U1-1A)*%
X155206200Y-92710000D02*
X157930600Y-95434400D01*
X154270000Y-92710000D02*
X155206200Y-92710000D01*
X157930600Y-95434400D02*
X156845000Y-96520000D01*
X160655000Y-99060000D02*
X160655000Y-97933100D01*
X160655000Y-97933100D02*
X158061000Y-95339000D01*
X159420000Y-93980000D02*
X158061000Y-95339000D01*
X157965600Y-95434400D02*
X157930600Y-95434400D01*
X158061000Y-95339000D02*
X157965600Y-95434400D01*
%TO.N,+5V*%
X160582500Y-81510500D02*
X160582500Y-83927500D01*
X159860100Y-80788100D02*
X160582500Y-81510500D01*
X159767800Y-80788100D02*
X159860100Y-80788100D01*
X154593000Y-75613300D02*
X159767800Y-80788100D01*
X154593000Y-47062000D02*
X154593000Y-75613300D01*
X155935000Y-45720000D02*
X154593000Y-47062000D01*
X160582500Y-83927500D02*
X159420000Y-85090000D01*
X170815000Y-90521300D02*
X170815000Y-99060000D01*
X167431800Y-87138100D02*
X170815000Y-90521300D01*
X165760300Y-87138100D02*
X167431800Y-87138100D01*
X164982200Y-86360000D02*
X165760300Y-87138100D01*
X163015000Y-86360000D02*
X164982200Y-86360000D01*
X160582500Y-83927500D02*
X163015000Y-86360000D01*
%TD*%
M02*
