%TF.GenerationSoftware,KiCad,Pcbnew,7.0.1*%
%TF.CreationDate,2023-10-30T13:33:15+01:00*%
%TF.ProjectId,schematic,73636865-6d61-4746-9963-2e6b69636164,rev?*%
%TF.SameCoordinates,Original*%
%TF.FileFunction,Legend,Top*%
%TF.FilePolarity,Positive*%
%FSLAX46Y46*%
G04 Gerber Fmt 4.6, Leading zero omitted, Abs format (unit mm)*
G04 Created by KiCad (PCBNEW 7.0.1) date 2023-10-30 13:33:15*
%MOMM*%
%LPD*%
G01*
G04 APERTURE LIST*
%ADD10C,0.150000*%
%ADD11C,0.125001*%
%ADD12C,0.300000*%
%ADD13C,0.127000*%
%ADD14C,0.100000*%
%ADD15C,0.200000*%
%ADD16C,0.120000*%
G04 APERTURE END LIST*
D10*
X184150000Y-97790000D02*
X184150000Y-74930000D01*
X176530000Y-97790000D02*
X184150000Y-97790000D01*
X176530000Y-113030000D02*
X176530000Y-97790000D01*
X199430000Y-113030000D02*
X176530000Y-113030000D01*
X199390000Y-74930000D02*
X199430000Y-113030000D01*
X184150000Y-74930000D02*
X199390000Y-74930000D01*
X144740000Y-45720000D02*
G75*
G03*
X144740000Y-45720000I-2500000J0D01*
G01*
D11*
X153097500Y-85090000D02*
G75*
G03*
X153097500Y-85090000I-62500J0D01*
G01*
X170877500Y-86360000D02*
G75*
G03*
X170877500Y-86360000I-62500J0D01*
G01*
D10*
X204430000Y-113030000D02*
G75*
G03*
X204430000Y-113030000I-2500000J0D01*
G01*
X144740000Y-113030000D02*
G75*
G03*
X144740000Y-113030000I-2500000J0D01*
G01*
X204430000Y-45720000D02*
G75*
G03*
X204430000Y-45720000I-2500000J0D01*
G01*
D12*
X161647142Y-62530714D02*
X162147142Y-62530714D01*
X162361428Y-63316428D02*
X161647142Y-63316428D01*
X161647142Y-63316428D02*
X161647142Y-61816428D01*
X161647142Y-61816428D02*
X162361428Y-61816428D01*
X163647143Y-63316428D02*
X163647143Y-62530714D01*
X163647143Y-62530714D02*
X163575714Y-62387857D01*
X163575714Y-62387857D02*
X163432857Y-62316428D01*
X163432857Y-62316428D02*
X163147143Y-62316428D01*
X163147143Y-62316428D02*
X163004285Y-62387857D01*
X163647143Y-63245000D02*
X163504285Y-63316428D01*
X163504285Y-63316428D02*
X163147143Y-63316428D01*
X163147143Y-63316428D02*
X163004285Y-63245000D01*
X163004285Y-63245000D02*
X162932857Y-63102142D01*
X162932857Y-63102142D02*
X162932857Y-62959285D01*
X162932857Y-62959285D02*
X163004285Y-62816428D01*
X163004285Y-62816428D02*
X163147143Y-62745000D01*
X163147143Y-62745000D02*
X163504285Y-62745000D01*
X163504285Y-62745000D02*
X163647143Y-62673571D01*
X164290000Y-63245000D02*
X164432857Y-63316428D01*
X164432857Y-63316428D02*
X164718571Y-63316428D01*
X164718571Y-63316428D02*
X164861428Y-63245000D01*
X164861428Y-63245000D02*
X164932857Y-63102142D01*
X164932857Y-63102142D02*
X164932857Y-63030714D01*
X164932857Y-63030714D02*
X164861428Y-62887857D01*
X164861428Y-62887857D02*
X164718571Y-62816428D01*
X164718571Y-62816428D02*
X164504286Y-62816428D01*
X164504286Y-62816428D02*
X164361428Y-62745000D01*
X164361428Y-62745000D02*
X164290000Y-62602142D01*
X164290000Y-62602142D02*
X164290000Y-62530714D01*
X164290000Y-62530714D02*
X164361428Y-62387857D01*
X164361428Y-62387857D02*
X164504286Y-62316428D01*
X164504286Y-62316428D02*
X164718571Y-62316428D01*
X164718571Y-62316428D02*
X164861428Y-62387857D01*
X165432857Y-62316428D02*
X165790000Y-63316428D01*
X166147143Y-62316428D02*
X165790000Y-63316428D01*
X165790000Y-63316428D02*
X165647143Y-63673571D01*
X165647143Y-63673571D02*
X165575714Y-63745000D01*
X165575714Y-63745000D02*
X165432857Y-63816428D01*
X166647143Y-63245000D02*
X166861429Y-63316428D01*
X166861429Y-63316428D02*
X167218571Y-63316428D01*
X167218571Y-63316428D02*
X167361429Y-63245000D01*
X167361429Y-63245000D02*
X167432857Y-63173571D01*
X167432857Y-63173571D02*
X167504286Y-63030714D01*
X167504286Y-63030714D02*
X167504286Y-62887857D01*
X167504286Y-62887857D02*
X167432857Y-62745000D01*
X167432857Y-62745000D02*
X167361429Y-62673571D01*
X167361429Y-62673571D02*
X167218571Y-62602142D01*
X167218571Y-62602142D02*
X166932857Y-62530714D01*
X166932857Y-62530714D02*
X166790000Y-62459285D01*
X166790000Y-62459285D02*
X166718571Y-62387857D01*
X166718571Y-62387857D02*
X166647143Y-62245000D01*
X166647143Y-62245000D02*
X166647143Y-62102142D01*
X166647143Y-62102142D02*
X166718571Y-61959285D01*
X166718571Y-61959285D02*
X166790000Y-61887857D01*
X166790000Y-61887857D02*
X166932857Y-61816428D01*
X166932857Y-61816428D02*
X167290000Y-61816428D01*
X167290000Y-61816428D02*
X167504286Y-61887857D01*
X168147142Y-63316428D02*
X168147142Y-61816428D01*
X168147142Y-61816428D02*
X168504285Y-61816428D01*
X168504285Y-61816428D02*
X168718571Y-61887857D01*
X168718571Y-61887857D02*
X168861428Y-62030714D01*
X168861428Y-62030714D02*
X168932857Y-62173571D01*
X168932857Y-62173571D02*
X169004285Y-62459285D01*
X169004285Y-62459285D02*
X169004285Y-62673571D01*
X169004285Y-62673571D02*
X168932857Y-62959285D01*
X168932857Y-62959285D02*
X168861428Y-63102142D01*
X168861428Y-63102142D02*
X168718571Y-63245000D01*
X168718571Y-63245000D02*
X168504285Y-63316428D01*
X168504285Y-63316428D02*
X168147142Y-63316428D01*
X170504285Y-63316428D02*
X170004285Y-62602142D01*
X169647142Y-63316428D02*
X169647142Y-61816428D01*
X169647142Y-61816428D02*
X170218571Y-61816428D01*
X170218571Y-61816428D02*
X170361428Y-61887857D01*
X170361428Y-61887857D02*
X170432857Y-61959285D01*
X170432857Y-61959285D02*
X170504285Y-62102142D01*
X170504285Y-62102142D02*
X170504285Y-62316428D01*
X170504285Y-62316428D02*
X170432857Y-62459285D01*
X170432857Y-62459285D02*
X170361428Y-62530714D01*
X170361428Y-62530714D02*
X170218571Y-62602142D01*
X170218571Y-62602142D02*
X169647142Y-62602142D01*
X172075714Y-61816428D02*
X172575714Y-63316428D01*
X172575714Y-63316428D02*
X173075714Y-61816428D01*
X174361428Y-63316428D02*
X173504285Y-63316428D01*
X173932856Y-63316428D02*
X173932856Y-61816428D01*
X173932856Y-61816428D02*
X173789999Y-62030714D01*
X173789999Y-62030714D02*
X173647142Y-62173571D01*
X173647142Y-62173571D02*
X173504285Y-62245000D01*
X175004284Y-63173571D02*
X175075713Y-63245000D01*
X175075713Y-63245000D02*
X175004284Y-63316428D01*
X175004284Y-63316428D02*
X174932856Y-63245000D01*
X174932856Y-63245000D02*
X175004284Y-63173571D01*
X175004284Y-63173571D02*
X175004284Y-63316428D01*
X176504285Y-63316428D02*
X175647142Y-63316428D01*
X176075713Y-63316428D02*
X176075713Y-61816428D01*
X176075713Y-61816428D02*
X175932856Y-62030714D01*
X175932856Y-62030714D02*
X175789999Y-62173571D01*
X175789999Y-62173571D02*
X175647142Y-62245000D01*
D10*
%TO.C,U3*%
X174498095Y-57882619D02*
X174498095Y-58692142D01*
X174498095Y-58692142D02*
X174545714Y-58787380D01*
X174545714Y-58787380D02*
X174593333Y-58835000D01*
X174593333Y-58835000D02*
X174688571Y-58882619D01*
X174688571Y-58882619D02*
X174879047Y-58882619D01*
X174879047Y-58882619D02*
X174974285Y-58835000D01*
X174974285Y-58835000D02*
X175021904Y-58787380D01*
X175021904Y-58787380D02*
X175069523Y-58692142D01*
X175069523Y-58692142D02*
X175069523Y-57882619D01*
X175450476Y-57882619D02*
X176069523Y-57882619D01*
X176069523Y-57882619D02*
X175736190Y-58263571D01*
X175736190Y-58263571D02*
X175879047Y-58263571D01*
X175879047Y-58263571D02*
X175974285Y-58311190D01*
X175974285Y-58311190D02*
X176021904Y-58358809D01*
X176021904Y-58358809D02*
X176069523Y-58454047D01*
X176069523Y-58454047D02*
X176069523Y-58692142D01*
X176069523Y-58692142D02*
X176021904Y-58787380D01*
X176021904Y-58787380D02*
X175974285Y-58835000D01*
X175974285Y-58835000D02*
X175879047Y-58882619D01*
X175879047Y-58882619D02*
X175593333Y-58882619D01*
X175593333Y-58882619D02*
X175498095Y-58835000D01*
X175498095Y-58835000D02*
X175450476Y-58787380D01*
%TO.C,J6*%
X180768810Y-92027619D02*
X181387857Y-92027619D01*
X181387857Y-92027619D02*
X181054524Y-92408571D01*
X181054524Y-92408571D02*
X181197381Y-92408571D01*
X181197381Y-92408571D02*
X181292619Y-92456190D01*
X181292619Y-92456190D02*
X181340238Y-92503809D01*
X181340238Y-92503809D02*
X181387857Y-92599047D01*
X181387857Y-92599047D02*
X181387857Y-92837142D01*
X181387857Y-92837142D02*
X181340238Y-92932380D01*
X181340238Y-92932380D02*
X181292619Y-92980000D01*
X181292619Y-92980000D02*
X181197381Y-93027619D01*
X181197381Y-93027619D02*
X180911667Y-93027619D01*
X180911667Y-93027619D02*
X180816429Y-92980000D01*
X180816429Y-92980000D02*
X180768810Y-92932380D01*
X181816429Y-92932380D02*
X181864048Y-92980000D01*
X181864048Y-92980000D02*
X181816429Y-93027619D01*
X181816429Y-93027619D02*
X181768810Y-92980000D01*
X181768810Y-92980000D02*
X181816429Y-92932380D01*
X181816429Y-92932380D02*
X181816429Y-93027619D01*
X182197381Y-92027619D02*
X182816428Y-92027619D01*
X182816428Y-92027619D02*
X182483095Y-92408571D01*
X182483095Y-92408571D02*
X182625952Y-92408571D01*
X182625952Y-92408571D02*
X182721190Y-92456190D01*
X182721190Y-92456190D02*
X182768809Y-92503809D01*
X182768809Y-92503809D02*
X182816428Y-92599047D01*
X182816428Y-92599047D02*
X182816428Y-92837142D01*
X182816428Y-92837142D02*
X182768809Y-92932380D01*
X182768809Y-92932380D02*
X182721190Y-92980000D01*
X182721190Y-92980000D02*
X182625952Y-93027619D01*
X182625952Y-93027619D02*
X182340238Y-93027619D01*
X182340238Y-93027619D02*
X182245000Y-92980000D01*
X182245000Y-92980000D02*
X182197381Y-92932380D01*
X183102143Y-92027619D02*
X183435476Y-93027619D01*
X183435476Y-93027619D02*
X183768809Y-92027619D01*
%TO.C,J5*%
X172754880Y-101046666D02*
X173516785Y-101046666D01*
X173088214Y-101427619D02*
X173183452Y-100665714D01*
X174540595Y-100427619D02*
X174064404Y-100427619D01*
X174064404Y-100427619D02*
X173957262Y-100903809D01*
X173957262Y-100903809D02*
X174010833Y-100856190D01*
X174010833Y-100856190D02*
X174112023Y-100808571D01*
X174112023Y-100808571D02*
X174350119Y-100808571D01*
X174350119Y-100808571D02*
X174439404Y-100856190D01*
X174439404Y-100856190D02*
X174481071Y-100903809D01*
X174481071Y-100903809D02*
X174516785Y-100999047D01*
X174516785Y-100999047D02*
X174487023Y-101237142D01*
X174487023Y-101237142D02*
X174427500Y-101332380D01*
X174427500Y-101332380D02*
X174373928Y-101380000D01*
X174373928Y-101380000D02*
X174272738Y-101427619D01*
X174272738Y-101427619D02*
X174034642Y-101427619D01*
X174034642Y-101427619D02*
X173945357Y-101380000D01*
X173945357Y-101380000D02*
X173903690Y-101332380D01*
X174867976Y-100427619D02*
X175076310Y-101427619D01*
X175076310Y-101427619D02*
X175534643Y-100427619D01*
%TO.C,C5*%
X168723333Y-91807380D02*
X168675714Y-91855000D01*
X168675714Y-91855000D02*
X168532857Y-91902619D01*
X168532857Y-91902619D02*
X168437619Y-91902619D01*
X168437619Y-91902619D02*
X168294762Y-91855000D01*
X168294762Y-91855000D02*
X168199524Y-91759761D01*
X168199524Y-91759761D02*
X168151905Y-91664523D01*
X168151905Y-91664523D02*
X168104286Y-91474047D01*
X168104286Y-91474047D02*
X168104286Y-91331190D01*
X168104286Y-91331190D02*
X168151905Y-91140714D01*
X168151905Y-91140714D02*
X168199524Y-91045476D01*
X168199524Y-91045476D02*
X168294762Y-90950238D01*
X168294762Y-90950238D02*
X168437619Y-90902619D01*
X168437619Y-90902619D02*
X168532857Y-90902619D01*
X168532857Y-90902619D02*
X168675714Y-90950238D01*
X168675714Y-90950238D02*
X168723333Y-90997857D01*
X169628095Y-90902619D02*
X169151905Y-90902619D01*
X169151905Y-90902619D02*
X169104286Y-91378809D01*
X169104286Y-91378809D02*
X169151905Y-91331190D01*
X169151905Y-91331190D02*
X169247143Y-91283571D01*
X169247143Y-91283571D02*
X169485238Y-91283571D01*
X169485238Y-91283571D02*
X169580476Y-91331190D01*
X169580476Y-91331190D02*
X169628095Y-91378809D01*
X169628095Y-91378809D02*
X169675714Y-91474047D01*
X169675714Y-91474047D02*
X169675714Y-91712142D01*
X169675714Y-91712142D02*
X169628095Y-91807380D01*
X169628095Y-91807380D02*
X169580476Y-91855000D01*
X169580476Y-91855000D02*
X169485238Y-91902619D01*
X169485238Y-91902619D02*
X169247143Y-91902619D01*
X169247143Y-91902619D02*
X169151905Y-91855000D01*
X169151905Y-91855000D02*
X169104286Y-91807380D01*
%TO.C,C12*%
X179062142Y-91172380D02*
X179014523Y-91220000D01*
X179014523Y-91220000D02*
X178871666Y-91267619D01*
X178871666Y-91267619D02*
X178776428Y-91267619D01*
X178776428Y-91267619D02*
X178633571Y-91220000D01*
X178633571Y-91220000D02*
X178538333Y-91124761D01*
X178538333Y-91124761D02*
X178490714Y-91029523D01*
X178490714Y-91029523D02*
X178443095Y-90839047D01*
X178443095Y-90839047D02*
X178443095Y-90696190D01*
X178443095Y-90696190D02*
X178490714Y-90505714D01*
X178490714Y-90505714D02*
X178538333Y-90410476D01*
X178538333Y-90410476D02*
X178633571Y-90315238D01*
X178633571Y-90315238D02*
X178776428Y-90267619D01*
X178776428Y-90267619D02*
X178871666Y-90267619D01*
X178871666Y-90267619D02*
X179014523Y-90315238D01*
X179014523Y-90315238D02*
X179062142Y-90362857D01*
X180014523Y-91267619D02*
X179443095Y-91267619D01*
X179728809Y-91267619D02*
X179728809Y-90267619D01*
X179728809Y-90267619D02*
X179633571Y-90410476D01*
X179633571Y-90410476D02*
X179538333Y-90505714D01*
X179538333Y-90505714D02*
X179443095Y-90553333D01*
X180395476Y-90362857D02*
X180443095Y-90315238D01*
X180443095Y-90315238D02*
X180538333Y-90267619D01*
X180538333Y-90267619D02*
X180776428Y-90267619D01*
X180776428Y-90267619D02*
X180871666Y-90315238D01*
X180871666Y-90315238D02*
X180919285Y-90362857D01*
X180919285Y-90362857D02*
X180966904Y-90458095D01*
X180966904Y-90458095D02*
X180966904Y-90553333D01*
X180966904Y-90553333D02*
X180919285Y-90696190D01*
X180919285Y-90696190D02*
X180347857Y-91267619D01*
X180347857Y-91267619D02*
X180966904Y-91267619D01*
%TO.C,R5*%
X164298333Y-80007619D02*
X163965000Y-79531428D01*
X163726905Y-80007619D02*
X163726905Y-79007619D01*
X163726905Y-79007619D02*
X164107857Y-79007619D01*
X164107857Y-79007619D02*
X164203095Y-79055238D01*
X164203095Y-79055238D02*
X164250714Y-79102857D01*
X164250714Y-79102857D02*
X164298333Y-79198095D01*
X164298333Y-79198095D02*
X164298333Y-79340952D01*
X164298333Y-79340952D02*
X164250714Y-79436190D01*
X164250714Y-79436190D02*
X164203095Y-79483809D01*
X164203095Y-79483809D02*
X164107857Y-79531428D01*
X164107857Y-79531428D02*
X163726905Y-79531428D01*
X165203095Y-79007619D02*
X164726905Y-79007619D01*
X164726905Y-79007619D02*
X164679286Y-79483809D01*
X164679286Y-79483809D02*
X164726905Y-79436190D01*
X164726905Y-79436190D02*
X164822143Y-79388571D01*
X164822143Y-79388571D02*
X165060238Y-79388571D01*
X165060238Y-79388571D02*
X165155476Y-79436190D01*
X165155476Y-79436190D02*
X165203095Y-79483809D01*
X165203095Y-79483809D02*
X165250714Y-79579047D01*
X165250714Y-79579047D02*
X165250714Y-79817142D01*
X165250714Y-79817142D02*
X165203095Y-79912380D01*
X165203095Y-79912380D02*
X165155476Y-79960000D01*
X165155476Y-79960000D02*
X165060238Y-80007619D01*
X165060238Y-80007619D02*
X164822143Y-80007619D01*
X164822143Y-80007619D02*
X164726905Y-79960000D01*
X164726905Y-79960000D02*
X164679286Y-79912380D01*
%TO.C,C7*%
X144502380Y-105556666D02*
X144550000Y-105604285D01*
X144550000Y-105604285D02*
X144597619Y-105747142D01*
X144597619Y-105747142D02*
X144597619Y-105842380D01*
X144597619Y-105842380D02*
X144550000Y-105985237D01*
X144550000Y-105985237D02*
X144454761Y-106080475D01*
X144454761Y-106080475D02*
X144359523Y-106128094D01*
X144359523Y-106128094D02*
X144169047Y-106175713D01*
X144169047Y-106175713D02*
X144026190Y-106175713D01*
X144026190Y-106175713D02*
X143835714Y-106128094D01*
X143835714Y-106128094D02*
X143740476Y-106080475D01*
X143740476Y-106080475D02*
X143645238Y-105985237D01*
X143645238Y-105985237D02*
X143597619Y-105842380D01*
X143597619Y-105842380D02*
X143597619Y-105747142D01*
X143597619Y-105747142D02*
X143645238Y-105604285D01*
X143645238Y-105604285D02*
X143692857Y-105556666D01*
X143597619Y-105223332D02*
X143597619Y-104556666D01*
X143597619Y-104556666D02*
X144597619Y-104985237D01*
%TO.C,Y1*%
X176688809Y-81266428D02*
X176688809Y-81742619D01*
X176355476Y-80742619D02*
X176688809Y-81266428D01*
X176688809Y-81266428D02*
X177022142Y-80742619D01*
X177879285Y-81742619D02*
X177307857Y-81742619D01*
X177593571Y-81742619D02*
X177593571Y-80742619D01*
X177593571Y-80742619D02*
X177498333Y-80885476D01*
X177498333Y-80885476D02*
X177403095Y-80980714D01*
X177403095Y-80980714D02*
X177307857Y-81028333D01*
%TO.C,R4*%
X143978333Y-100792619D02*
X143645000Y-100316428D01*
X143406905Y-100792619D02*
X143406905Y-99792619D01*
X143406905Y-99792619D02*
X143787857Y-99792619D01*
X143787857Y-99792619D02*
X143883095Y-99840238D01*
X143883095Y-99840238D02*
X143930714Y-99887857D01*
X143930714Y-99887857D02*
X143978333Y-99983095D01*
X143978333Y-99983095D02*
X143978333Y-100125952D01*
X143978333Y-100125952D02*
X143930714Y-100221190D01*
X143930714Y-100221190D02*
X143883095Y-100268809D01*
X143883095Y-100268809D02*
X143787857Y-100316428D01*
X143787857Y-100316428D02*
X143406905Y-100316428D01*
X144835476Y-100125952D02*
X144835476Y-100792619D01*
X144597381Y-99745000D02*
X144359286Y-100459285D01*
X144359286Y-100459285D02*
X144978333Y-100459285D01*
%TO.C,J1*%
X175974523Y-95712619D02*
X175641190Y-95236428D01*
X175403095Y-95712619D02*
X175403095Y-94712619D01*
X175403095Y-94712619D02*
X175784047Y-94712619D01*
X175784047Y-94712619D02*
X175879285Y-94760238D01*
X175879285Y-94760238D02*
X175926904Y-94807857D01*
X175926904Y-94807857D02*
X175974523Y-94903095D01*
X175974523Y-94903095D02*
X175974523Y-95045952D01*
X175974523Y-95045952D02*
X175926904Y-95141190D01*
X175926904Y-95141190D02*
X175879285Y-95188809D01*
X175879285Y-95188809D02*
X175784047Y-95236428D01*
X175784047Y-95236428D02*
X175403095Y-95236428D01*
X176736428Y-95188809D02*
X176403095Y-95188809D01*
X176403095Y-95712619D02*
X176403095Y-94712619D01*
X176403095Y-94712619D02*
X176879285Y-94712619D01*
X177022143Y-95807857D02*
X177784047Y-95807857D01*
X178022143Y-95712619D02*
X178022143Y-94712619D01*
X178498333Y-95045952D02*
X178498333Y-95712619D01*
X178498333Y-95141190D02*
X178545952Y-95093571D01*
X178545952Y-95093571D02*
X178641190Y-95045952D01*
X178641190Y-95045952D02*
X178784047Y-95045952D01*
X178784047Y-95045952D02*
X178879285Y-95093571D01*
X178879285Y-95093571D02*
X178926904Y-95188809D01*
X178926904Y-95188809D02*
X178926904Y-95712619D01*
%TO.C,C10*%
X168862142Y-102602380D02*
X168814523Y-102650000D01*
X168814523Y-102650000D02*
X168671666Y-102697619D01*
X168671666Y-102697619D02*
X168576428Y-102697619D01*
X168576428Y-102697619D02*
X168433571Y-102650000D01*
X168433571Y-102650000D02*
X168338333Y-102554761D01*
X168338333Y-102554761D02*
X168290714Y-102459523D01*
X168290714Y-102459523D02*
X168243095Y-102269047D01*
X168243095Y-102269047D02*
X168243095Y-102126190D01*
X168243095Y-102126190D02*
X168290714Y-101935714D01*
X168290714Y-101935714D02*
X168338333Y-101840476D01*
X168338333Y-101840476D02*
X168433571Y-101745238D01*
X168433571Y-101745238D02*
X168576428Y-101697619D01*
X168576428Y-101697619D02*
X168671666Y-101697619D01*
X168671666Y-101697619D02*
X168814523Y-101745238D01*
X168814523Y-101745238D02*
X168862142Y-101792857D01*
X169814523Y-102697619D02*
X169243095Y-102697619D01*
X169528809Y-102697619D02*
X169528809Y-101697619D01*
X169528809Y-101697619D02*
X169433571Y-101840476D01*
X169433571Y-101840476D02*
X169338333Y-101935714D01*
X169338333Y-101935714D02*
X169243095Y-101983333D01*
X170433571Y-101697619D02*
X170528809Y-101697619D01*
X170528809Y-101697619D02*
X170624047Y-101745238D01*
X170624047Y-101745238D02*
X170671666Y-101792857D01*
X170671666Y-101792857D02*
X170719285Y-101888095D01*
X170719285Y-101888095D02*
X170766904Y-102078571D01*
X170766904Y-102078571D02*
X170766904Y-102316666D01*
X170766904Y-102316666D02*
X170719285Y-102507142D01*
X170719285Y-102507142D02*
X170671666Y-102602380D01*
X170671666Y-102602380D02*
X170624047Y-102650000D01*
X170624047Y-102650000D02*
X170528809Y-102697619D01*
X170528809Y-102697619D02*
X170433571Y-102697619D01*
X170433571Y-102697619D02*
X170338333Y-102650000D01*
X170338333Y-102650000D02*
X170290714Y-102602380D01*
X170290714Y-102602380D02*
X170243095Y-102507142D01*
X170243095Y-102507142D02*
X170195476Y-102316666D01*
X170195476Y-102316666D02*
X170195476Y-102078571D01*
X170195476Y-102078571D02*
X170243095Y-101888095D01*
X170243095Y-101888095D02*
X170290714Y-101792857D01*
X170290714Y-101792857D02*
X170338333Y-101745238D01*
X170338333Y-101745238D02*
X170433571Y-101697619D01*
%TO.C,J2*%
X179427381Y-86457619D02*
X179617857Y-86457619D01*
X179617857Y-86457619D02*
X179713095Y-86505238D01*
X179713095Y-86505238D02*
X179808333Y-86600476D01*
X179808333Y-86600476D02*
X179855952Y-86790952D01*
X179855952Y-86790952D02*
X179855952Y-87124285D01*
X179855952Y-87124285D02*
X179808333Y-87314761D01*
X179808333Y-87314761D02*
X179713095Y-87410000D01*
X179713095Y-87410000D02*
X179617857Y-87457619D01*
X179617857Y-87457619D02*
X179427381Y-87457619D01*
X179427381Y-87457619D02*
X179332143Y-87410000D01*
X179332143Y-87410000D02*
X179236905Y-87314761D01*
X179236905Y-87314761D02*
X179189286Y-87124285D01*
X179189286Y-87124285D02*
X179189286Y-86790952D01*
X179189286Y-86790952D02*
X179236905Y-86600476D01*
X179236905Y-86600476D02*
X179332143Y-86505238D01*
X179332143Y-86505238D02*
X179427381Y-86457619D01*
X180236905Y-87410000D02*
X180379762Y-87457619D01*
X180379762Y-87457619D02*
X180617857Y-87457619D01*
X180617857Y-87457619D02*
X180713095Y-87410000D01*
X180713095Y-87410000D02*
X180760714Y-87362380D01*
X180760714Y-87362380D02*
X180808333Y-87267142D01*
X180808333Y-87267142D02*
X180808333Y-87171904D01*
X180808333Y-87171904D02*
X180760714Y-87076666D01*
X180760714Y-87076666D02*
X180713095Y-87029047D01*
X180713095Y-87029047D02*
X180617857Y-86981428D01*
X180617857Y-86981428D02*
X180427381Y-86933809D01*
X180427381Y-86933809D02*
X180332143Y-86886190D01*
X180332143Y-86886190D02*
X180284524Y-86838571D01*
X180284524Y-86838571D02*
X180236905Y-86743333D01*
X180236905Y-86743333D02*
X180236905Y-86648095D01*
X180236905Y-86648095D02*
X180284524Y-86552857D01*
X180284524Y-86552857D02*
X180332143Y-86505238D01*
X180332143Y-86505238D02*
X180427381Y-86457619D01*
X180427381Y-86457619D02*
X180665476Y-86457619D01*
X180665476Y-86457619D02*
X180808333Y-86505238D01*
X181808333Y-87362380D02*
X181760714Y-87410000D01*
X181760714Y-87410000D02*
X181617857Y-87457619D01*
X181617857Y-87457619D02*
X181522619Y-87457619D01*
X181522619Y-87457619D02*
X181379762Y-87410000D01*
X181379762Y-87410000D02*
X181284524Y-87314761D01*
X181284524Y-87314761D02*
X181236905Y-87219523D01*
X181236905Y-87219523D02*
X181189286Y-87029047D01*
X181189286Y-87029047D02*
X181189286Y-86886190D01*
X181189286Y-86886190D02*
X181236905Y-86695714D01*
X181236905Y-86695714D02*
X181284524Y-86600476D01*
X181284524Y-86600476D02*
X181379762Y-86505238D01*
X181379762Y-86505238D02*
X181522619Y-86457619D01*
X181522619Y-86457619D02*
X181617857Y-86457619D01*
X181617857Y-86457619D02*
X181760714Y-86505238D01*
X181760714Y-86505238D02*
X181808333Y-86552857D01*
X182141667Y-86457619D02*
X182760714Y-86457619D01*
X182760714Y-86457619D02*
X182427381Y-86838571D01*
X182427381Y-86838571D02*
X182570238Y-86838571D01*
X182570238Y-86838571D02*
X182665476Y-86886190D01*
X182665476Y-86886190D02*
X182713095Y-86933809D01*
X182713095Y-86933809D02*
X182760714Y-87029047D01*
X182760714Y-87029047D02*
X182760714Y-87267142D01*
X182760714Y-87267142D02*
X182713095Y-87362380D01*
X182713095Y-87362380D02*
X182665476Y-87410000D01*
X182665476Y-87410000D02*
X182570238Y-87457619D01*
X182570238Y-87457619D02*
X182284524Y-87457619D01*
X182284524Y-87457619D02*
X182189286Y-87410000D01*
X182189286Y-87410000D02*
X182141667Y-87362380D01*
%TO.C,C9*%
X143958333Y-85457380D02*
X143910714Y-85505000D01*
X143910714Y-85505000D02*
X143767857Y-85552619D01*
X143767857Y-85552619D02*
X143672619Y-85552619D01*
X143672619Y-85552619D02*
X143529762Y-85505000D01*
X143529762Y-85505000D02*
X143434524Y-85409761D01*
X143434524Y-85409761D02*
X143386905Y-85314523D01*
X143386905Y-85314523D02*
X143339286Y-85124047D01*
X143339286Y-85124047D02*
X143339286Y-84981190D01*
X143339286Y-84981190D02*
X143386905Y-84790714D01*
X143386905Y-84790714D02*
X143434524Y-84695476D01*
X143434524Y-84695476D02*
X143529762Y-84600238D01*
X143529762Y-84600238D02*
X143672619Y-84552619D01*
X143672619Y-84552619D02*
X143767857Y-84552619D01*
X143767857Y-84552619D02*
X143910714Y-84600238D01*
X143910714Y-84600238D02*
X143958333Y-84647857D01*
X144434524Y-85552619D02*
X144625000Y-85552619D01*
X144625000Y-85552619D02*
X144720238Y-85505000D01*
X144720238Y-85505000D02*
X144767857Y-85457380D01*
X144767857Y-85457380D02*
X144863095Y-85314523D01*
X144863095Y-85314523D02*
X144910714Y-85124047D01*
X144910714Y-85124047D02*
X144910714Y-84743095D01*
X144910714Y-84743095D02*
X144863095Y-84647857D01*
X144863095Y-84647857D02*
X144815476Y-84600238D01*
X144815476Y-84600238D02*
X144720238Y-84552619D01*
X144720238Y-84552619D02*
X144529762Y-84552619D01*
X144529762Y-84552619D02*
X144434524Y-84600238D01*
X144434524Y-84600238D02*
X144386905Y-84647857D01*
X144386905Y-84647857D02*
X144339286Y-84743095D01*
X144339286Y-84743095D02*
X144339286Y-84981190D01*
X144339286Y-84981190D02*
X144386905Y-85076428D01*
X144386905Y-85076428D02*
X144434524Y-85124047D01*
X144434524Y-85124047D02*
X144529762Y-85171666D01*
X144529762Y-85171666D02*
X144720238Y-85171666D01*
X144720238Y-85171666D02*
X144815476Y-85124047D01*
X144815476Y-85124047D02*
X144863095Y-85076428D01*
X144863095Y-85076428D02*
X144910714Y-84981190D01*
%TO.C,U2*%
X152908095Y-108682619D02*
X152908095Y-109492142D01*
X152908095Y-109492142D02*
X152955714Y-109587380D01*
X152955714Y-109587380D02*
X153003333Y-109635000D01*
X153003333Y-109635000D02*
X153098571Y-109682619D01*
X153098571Y-109682619D02*
X153289047Y-109682619D01*
X153289047Y-109682619D02*
X153384285Y-109635000D01*
X153384285Y-109635000D02*
X153431904Y-109587380D01*
X153431904Y-109587380D02*
X153479523Y-109492142D01*
X153479523Y-109492142D02*
X153479523Y-108682619D01*
X153908095Y-108777857D02*
X153955714Y-108730238D01*
X153955714Y-108730238D02*
X154050952Y-108682619D01*
X154050952Y-108682619D02*
X154289047Y-108682619D01*
X154289047Y-108682619D02*
X154384285Y-108730238D01*
X154384285Y-108730238D02*
X154431904Y-108777857D01*
X154431904Y-108777857D02*
X154479523Y-108873095D01*
X154479523Y-108873095D02*
X154479523Y-108968333D01*
X154479523Y-108968333D02*
X154431904Y-109111190D01*
X154431904Y-109111190D02*
X153860476Y-109682619D01*
X153860476Y-109682619D02*
X154479523Y-109682619D01*
%TO.C,C6*%
X160488333Y-114667380D02*
X160440714Y-114715000D01*
X160440714Y-114715000D02*
X160297857Y-114762619D01*
X160297857Y-114762619D02*
X160202619Y-114762619D01*
X160202619Y-114762619D02*
X160059762Y-114715000D01*
X160059762Y-114715000D02*
X159964524Y-114619761D01*
X159964524Y-114619761D02*
X159916905Y-114524523D01*
X159916905Y-114524523D02*
X159869286Y-114334047D01*
X159869286Y-114334047D02*
X159869286Y-114191190D01*
X159869286Y-114191190D02*
X159916905Y-114000714D01*
X159916905Y-114000714D02*
X159964524Y-113905476D01*
X159964524Y-113905476D02*
X160059762Y-113810238D01*
X160059762Y-113810238D02*
X160202619Y-113762619D01*
X160202619Y-113762619D02*
X160297857Y-113762619D01*
X160297857Y-113762619D02*
X160440714Y-113810238D01*
X160440714Y-113810238D02*
X160488333Y-113857857D01*
X161345476Y-113762619D02*
X161155000Y-113762619D01*
X161155000Y-113762619D02*
X161059762Y-113810238D01*
X161059762Y-113810238D02*
X161012143Y-113857857D01*
X161012143Y-113857857D02*
X160916905Y-114000714D01*
X160916905Y-114000714D02*
X160869286Y-114191190D01*
X160869286Y-114191190D02*
X160869286Y-114572142D01*
X160869286Y-114572142D02*
X160916905Y-114667380D01*
X160916905Y-114667380D02*
X160964524Y-114715000D01*
X160964524Y-114715000D02*
X161059762Y-114762619D01*
X161059762Y-114762619D02*
X161250238Y-114762619D01*
X161250238Y-114762619D02*
X161345476Y-114715000D01*
X161345476Y-114715000D02*
X161393095Y-114667380D01*
X161393095Y-114667380D02*
X161440714Y-114572142D01*
X161440714Y-114572142D02*
X161440714Y-114334047D01*
X161440714Y-114334047D02*
X161393095Y-114238809D01*
X161393095Y-114238809D02*
X161345476Y-114191190D01*
X161345476Y-114191190D02*
X161250238Y-114143571D01*
X161250238Y-114143571D02*
X161059762Y-114143571D01*
X161059762Y-114143571D02*
X160964524Y-114191190D01*
X160964524Y-114191190D02*
X160916905Y-114238809D01*
X160916905Y-114238809D02*
X160869286Y-114334047D01*
%TO.C,C11*%
X150487142Y-79107380D02*
X150439523Y-79155000D01*
X150439523Y-79155000D02*
X150296666Y-79202619D01*
X150296666Y-79202619D02*
X150201428Y-79202619D01*
X150201428Y-79202619D02*
X150058571Y-79155000D01*
X150058571Y-79155000D02*
X149963333Y-79059761D01*
X149963333Y-79059761D02*
X149915714Y-78964523D01*
X149915714Y-78964523D02*
X149868095Y-78774047D01*
X149868095Y-78774047D02*
X149868095Y-78631190D01*
X149868095Y-78631190D02*
X149915714Y-78440714D01*
X149915714Y-78440714D02*
X149963333Y-78345476D01*
X149963333Y-78345476D02*
X150058571Y-78250238D01*
X150058571Y-78250238D02*
X150201428Y-78202619D01*
X150201428Y-78202619D02*
X150296666Y-78202619D01*
X150296666Y-78202619D02*
X150439523Y-78250238D01*
X150439523Y-78250238D02*
X150487142Y-78297857D01*
X151439523Y-79202619D02*
X150868095Y-79202619D01*
X151153809Y-79202619D02*
X151153809Y-78202619D01*
X151153809Y-78202619D02*
X151058571Y-78345476D01*
X151058571Y-78345476D02*
X150963333Y-78440714D01*
X150963333Y-78440714D02*
X150868095Y-78488333D01*
X152391904Y-79202619D02*
X151820476Y-79202619D01*
X152106190Y-79202619D02*
X152106190Y-78202619D01*
X152106190Y-78202619D02*
X152010952Y-78345476D01*
X152010952Y-78345476D02*
X151915714Y-78440714D01*
X151915714Y-78440714D02*
X151820476Y-78488333D01*
%TO.C,R2*%
X143978333Y-96982619D02*
X143645000Y-96506428D01*
X143406905Y-96982619D02*
X143406905Y-95982619D01*
X143406905Y-95982619D02*
X143787857Y-95982619D01*
X143787857Y-95982619D02*
X143883095Y-96030238D01*
X143883095Y-96030238D02*
X143930714Y-96077857D01*
X143930714Y-96077857D02*
X143978333Y-96173095D01*
X143978333Y-96173095D02*
X143978333Y-96315952D01*
X143978333Y-96315952D02*
X143930714Y-96411190D01*
X143930714Y-96411190D02*
X143883095Y-96458809D01*
X143883095Y-96458809D02*
X143787857Y-96506428D01*
X143787857Y-96506428D02*
X143406905Y-96506428D01*
X144359286Y-96077857D02*
X144406905Y-96030238D01*
X144406905Y-96030238D02*
X144502143Y-95982619D01*
X144502143Y-95982619D02*
X144740238Y-95982619D01*
X144740238Y-95982619D02*
X144835476Y-96030238D01*
X144835476Y-96030238D02*
X144883095Y-96077857D01*
X144883095Y-96077857D02*
X144930714Y-96173095D01*
X144930714Y-96173095D02*
X144930714Y-96268333D01*
X144930714Y-96268333D02*
X144883095Y-96411190D01*
X144883095Y-96411190D02*
X144311667Y-96982619D01*
X144311667Y-96982619D02*
X144930714Y-96982619D01*
%TO.C,C1*%
X168723333Y-95832380D02*
X168675714Y-95880000D01*
X168675714Y-95880000D02*
X168532857Y-95927619D01*
X168532857Y-95927619D02*
X168437619Y-95927619D01*
X168437619Y-95927619D02*
X168294762Y-95880000D01*
X168294762Y-95880000D02*
X168199524Y-95784761D01*
X168199524Y-95784761D02*
X168151905Y-95689523D01*
X168151905Y-95689523D02*
X168104286Y-95499047D01*
X168104286Y-95499047D02*
X168104286Y-95356190D01*
X168104286Y-95356190D02*
X168151905Y-95165714D01*
X168151905Y-95165714D02*
X168199524Y-95070476D01*
X168199524Y-95070476D02*
X168294762Y-94975238D01*
X168294762Y-94975238D02*
X168437619Y-94927619D01*
X168437619Y-94927619D02*
X168532857Y-94927619D01*
X168532857Y-94927619D02*
X168675714Y-94975238D01*
X168675714Y-94975238D02*
X168723333Y-95022857D01*
X169675714Y-95927619D02*
X169104286Y-95927619D01*
X169390000Y-95927619D02*
X169390000Y-94927619D01*
X169390000Y-94927619D02*
X169294762Y-95070476D01*
X169294762Y-95070476D02*
X169199524Y-95165714D01*
X169199524Y-95165714D02*
X169104286Y-95213333D01*
%TO.C,J3*%
X175260000Y-110317619D02*
X175260000Y-109317619D01*
%TO.C,J4*%
X175640952Y-104062857D02*
X175545714Y-104015238D01*
X175545714Y-104015238D02*
X175450476Y-103920000D01*
X175450476Y-103920000D02*
X175307619Y-103777142D01*
X175307619Y-103777142D02*
X175212381Y-103729523D01*
X175212381Y-103729523D02*
X175117143Y-103729523D01*
X175164762Y-103967619D02*
X175069524Y-103920000D01*
X175069524Y-103920000D02*
X174974286Y-103824761D01*
X174974286Y-103824761D02*
X174926667Y-103634285D01*
X174926667Y-103634285D02*
X174926667Y-103300952D01*
X174926667Y-103300952D02*
X174974286Y-103110476D01*
X174974286Y-103110476D02*
X175069524Y-103015238D01*
X175069524Y-103015238D02*
X175164762Y-102967619D01*
X175164762Y-102967619D02*
X175355238Y-102967619D01*
X175355238Y-102967619D02*
X175450476Y-103015238D01*
X175450476Y-103015238D02*
X175545714Y-103110476D01*
X175545714Y-103110476D02*
X175593333Y-103300952D01*
X175593333Y-103300952D02*
X175593333Y-103634285D01*
X175593333Y-103634285D02*
X175545714Y-103824761D01*
X175545714Y-103824761D02*
X175450476Y-103920000D01*
X175450476Y-103920000D02*
X175355238Y-103967619D01*
X175355238Y-103967619D02*
X175164762Y-103967619D01*
%TO.C,C15*%
X165727142Y-114667380D02*
X165679523Y-114715000D01*
X165679523Y-114715000D02*
X165536666Y-114762619D01*
X165536666Y-114762619D02*
X165441428Y-114762619D01*
X165441428Y-114762619D02*
X165298571Y-114715000D01*
X165298571Y-114715000D02*
X165203333Y-114619761D01*
X165203333Y-114619761D02*
X165155714Y-114524523D01*
X165155714Y-114524523D02*
X165108095Y-114334047D01*
X165108095Y-114334047D02*
X165108095Y-114191190D01*
X165108095Y-114191190D02*
X165155714Y-114000714D01*
X165155714Y-114000714D02*
X165203333Y-113905476D01*
X165203333Y-113905476D02*
X165298571Y-113810238D01*
X165298571Y-113810238D02*
X165441428Y-113762619D01*
X165441428Y-113762619D02*
X165536666Y-113762619D01*
X165536666Y-113762619D02*
X165679523Y-113810238D01*
X165679523Y-113810238D02*
X165727142Y-113857857D01*
X166679523Y-114762619D02*
X166108095Y-114762619D01*
X166393809Y-114762619D02*
X166393809Y-113762619D01*
X166393809Y-113762619D02*
X166298571Y-113905476D01*
X166298571Y-113905476D02*
X166203333Y-114000714D01*
X166203333Y-114000714D02*
X166108095Y-114048333D01*
X167584285Y-113762619D02*
X167108095Y-113762619D01*
X167108095Y-113762619D02*
X167060476Y-114238809D01*
X167060476Y-114238809D02*
X167108095Y-114191190D01*
X167108095Y-114191190D02*
X167203333Y-114143571D01*
X167203333Y-114143571D02*
X167441428Y-114143571D01*
X167441428Y-114143571D02*
X167536666Y-114191190D01*
X167536666Y-114191190D02*
X167584285Y-114238809D01*
X167584285Y-114238809D02*
X167631904Y-114334047D01*
X167631904Y-114334047D02*
X167631904Y-114572142D01*
X167631904Y-114572142D02*
X167584285Y-114667380D01*
X167584285Y-114667380D02*
X167536666Y-114715000D01*
X167536666Y-114715000D02*
X167441428Y-114762619D01*
X167441428Y-114762619D02*
X167203333Y-114762619D01*
X167203333Y-114762619D02*
X167108095Y-114715000D01*
X167108095Y-114715000D02*
X167060476Y-114667380D01*
%TO.C,R6*%
X143978333Y-82377619D02*
X143645000Y-81901428D01*
X143406905Y-82377619D02*
X143406905Y-81377619D01*
X143406905Y-81377619D02*
X143787857Y-81377619D01*
X143787857Y-81377619D02*
X143883095Y-81425238D01*
X143883095Y-81425238D02*
X143930714Y-81472857D01*
X143930714Y-81472857D02*
X143978333Y-81568095D01*
X143978333Y-81568095D02*
X143978333Y-81710952D01*
X143978333Y-81710952D02*
X143930714Y-81806190D01*
X143930714Y-81806190D02*
X143883095Y-81853809D01*
X143883095Y-81853809D02*
X143787857Y-81901428D01*
X143787857Y-81901428D02*
X143406905Y-81901428D01*
X144835476Y-81377619D02*
X144645000Y-81377619D01*
X144645000Y-81377619D02*
X144549762Y-81425238D01*
X144549762Y-81425238D02*
X144502143Y-81472857D01*
X144502143Y-81472857D02*
X144406905Y-81615714D01*
X144406905Y-81615714D02*
X144359286Y-81806190D01*
X144359286Y-81806190D02*
X144359286Y-82187142D01*
X144359286Y-82187142D02*
X144406905Y-82282380D01*
X144406905Y-82282380D02*
X144454524Y-82330000D01*
X144454524Y-82330000D02*
X144549762Y-82377619D01*
X144549762Y-82377619D02*
X144740238Y-82377619D01*
X144740238Y-82377619D02*
X144835476Y-82330000D01*
X144835476Y-82330000D02*
X144883095Y-82282380D01*
X144883095Y-82282380D02*
X144930714Y-82187142D01*
X144930714Y-82187142D02*
X144930714Y-81949047D01*
X144930714Y-81949047D02*
X144883095Y-81853809D01*
X144883095Y-81853809D02*
X144835476Y-81806190D01*
X144835476Y-81806190D02*
X144740238Y-81758571D01*
X144740238Y-81758571D02*
X144549762Y-81758571D01*
X144549762Y-81758571D02*
X144454524Y-81806190D01*
X144454524Y-81806190D02*
X144406905Y-81853809D01*
X144406905Y-81853809D02*
X144359286Y-81949047D01*
%TO.C,R1*%
X159853333Y-96982619D02*
X159520000Y-96506428D01*
X159281905Y-96982619D02*
X159281905Y-95982619D01*
X159281905Y-95982619D02*
X159662857Y-95982619D01*
X159662857Y-95982619D02*
X159758095Y-96030238D01*
X159758095Y-96030238D02*
X159805714Y-96077857D01*
X159805714Y-96077857D02*
X159853333Y-96173095D01*
X159853333Y-96173095D02*
X159853333Y-96315952D01*
X159853333Y-96315952D02*
X159805714Y-96411190D01*
X159805714Y-96411190D02*
X159758095Y-96458809D01*
X159758095Y-96458809D02*
X159662857Y-96506428D01*
X159662857Y-96506428D02*
X159281905Y-96506428D01*
X160805714Y-96982619D02*
X160234286Y-96982619D01*
X160520000Y-96982619D02*
X160520000Y-95982619D01*
X160520000Y-95982619D02*
X160424762Y-96125476D01*
X160424762Y-96125476D02*
X160329524Y-96220714D01*
X160329524Y-96220714D02*
X160234286Y-96268333D01*
%TO.C,C14*%
X179697142Y-75932380D02*
X179649523Y-75980000D01*
X179649523Y-75980000D02*
X179506666Y-76027619D01*
X179506666Y-76027619D02*
X179411428Y-76027619D01*
X179411428Y-76027619D02*
X179268571Y-75980000D01*
X179268571Y-75980000D02*
X179173333Y-75884761D01*
X179173333Y-75884761D02*
X179125714Y-75789523D01*
X179125714Y-75789523D02*
X179078095Y-75599047D01*
X179078095Y-75599047D02*
X179078095Y-75456190D01*
X179078095Y-75456190D02*
X179125714Y-75265714D01*
X179125714Y-75265714D02*
X179173333Y-75170476D01*
X179173333Y-75170476D02*
X179268571Y-75075238D01*
X179268571Y-75075238D02*
X179411428Y-75027619D01*
X179411428Y-75027619D02*
X179506666Y-75027619D01*
X179506666Y-75027619D02*
X179649523Y-75075238D01*
X179649523Y-75075238D02*
X179697142Y-75122857D01*
X180649523Y-76027619D02*
X180078095Y-76027619D01*
X180363809Y-76027619D02*
X180363809Y-75027619D01*
X180363809Y-75027619D02*
X180268571Y-75170476D01*
X180268571Y-75170476D02*
X180173333Y-75265714D01*
X180173333Y-75265714D02*
X180078095Y-75313333D01*
X181506666Y-75360952D02*
X181506666Y-76027619D01*
X181268571Y-74980000D02*
X181030476Y-75694285D01*
X181030476Y-75694285D02*
X181649523Y-75694285D01*
%TO.C,C2*%
X143978333Y-91807380D02*
X143930714Y-91855000D01*
X143930714Y-91855000D02*
X143787857Y-91902619D01*
X143787857Y-91902619D02*
X143692619Y-91902619D01*
X143692619Y-91902619D02*
X143549762Y-91855000D01*
X143549762Y-91855000D02*
X143454524Y-91759761D01*
X143454524Y-91759761D02*
X143406905Y-91664523D01*
X143406905Y-91664523D02*
X143359286Y-91474047D01*
X143359286Y-91474047D02*
X143359286Y-91331190D01*
X143359286Y-91331190D02*
X143406905Y-91140714D01*
X143406905Y-91140714D02*
X143454524Y-91045476D01*
X143454524Y-91045476D02*
X143549762Y-90950238D01*
X143549762Y-90950238D02*
X143692619Y-90902619D01*
X143692619Y-90902619D02*
X143787857Y-90902619D01*
X143787857Y-90902619D02*
X143930714Y-90950238D01*
X143930714Y-90950238D02*
X143978333Y-90997857D01*
X144359286Y-90997857D02*
X144406905Y-90950238D01*
X144406905Y-90950238D02*
X144502143Y-90902619D01*
X144502143Y-90902619D02*
X144740238Y-90902619D01*
X144740238Y-90902619D02*
X144835476Y-90950238D01*
X144835476Y-90950238D02*
X144883095Y-90997857D01*
X144883095Y-90997857D02*
X144930714Y-91093095D01*
X144930714Y-91093095D02*
X144930714Y-91188333D01*
X144930714Y-91188333D02*
X144883095Y-91331190D01*
X144883095Y-91331190D02*
X144311667Y-91902619D01*
X144311667Y-91902619D02*
X144930714Y-91902619D01*
%TO.C,C3*%
X168743333Y-88847380D02*
X168695714Y-88895000D01*
X168695714Y-88895000D02*
X168552857Y-88942619D01*
X168552857Y-88942619D02*
X168457619Y-88942619D01*
X168457619Y-88942619D02*
X168314762Y-88895000D01*
X168314762Y-88895000D02*
X168219524Y-88799761D01*
X168219524Y-88799761D02*
X168171905Y-88704523D01*
X168171905Y-88704523D02*
X168124286Y-88514047D01*
X168124286Y-88514047D02*
X168124286Y-88371190D01*
X168124286Y-88371190D02*
X168171905Y-88180714D01*
X168171905Y-88180714D02*
X168219524Y-88085476D01*
X168219524Y-88085476D02*
X168314762Y-87990238D01*
X168314762Y-87990238D02*
X168457619Y-87942619D01*
X168457619Y-87942619D02*
X168552857Y-87942619D01*
X168552857Y-87942619D02*
X168695714Y-87990238D01*
X168695714Y-87990238D02*
X168743333Y-88037857D01*
X169076667Y-87942619D02*
X169695714Y-87942619D01*
X169695714Y-87942619D02*
X169362381Y-88323571D01*
X169362381Y-88323571D02*
X169505238Y-88323571D01*
X169505238Y-88323571D02*
X169600476Y-88371190D01*
X169600476Y-88371190D02*
X169648095Y-88418809D01*
X169648095Y-88418809D02*
X169695714Y-88514047D01*
X169695714Y-88514047D02*
X169695714Y-88752142D01*
X169695714Y-88752142D02*
X169648095Y-88847380D01*
X169648095Y-88847380D02*
X169600476Y-88895000D01*
X169600476Y-88895000D02*
X169505238Y-88942619D01*
X169505238Y-88942619D02*
X169219524Y-88942619D01*
X169219524Y-88942619D02*
X169124286Y-88895000D01*
X169124286Y-88895000D02*
X169076667Y-88847380D01*
%TO.C,R3*%
X173188333Y-109047619D02*
X172855000Y-108571428D01*
X172616905Y-109047619D02*
X172616905Y-108047619D01*
X172616905Y-108047619D02*
X172997857Y-108047619D01*
X172997857Y-108047619D02*
X173093095Y-108095238D01*
X173093095Y-108095238D02*
X173140714Y-108142857D01*
X173140714Y-108142857D02*
X173188333Y-108238095D01*
X173188333Y-108238095D02*
X173188333Y-108380952D01*
X173188333Y-108380952D02*
X173140714Y-108476190D01*
X173140714Y-108476190D02*
X173093095Y-108523809D01*
X173093095Y-108523809D02*
X172997857Y-108571428D01*
X172997857Y-108571428D02*
X172616905Y-108571428D01*
X173521667Y-108047619D02*
X174140714Y-108047619D01*
X174140714Y-108047619D02*
X173807381Y-108428571D01*
X173807381Y-108428571D02*
X173950238Y-108428571D01*
X173950238Y-108428571D02*
X174045476Y-108476190D01*
X174045476Y-108476190D02*
X174093095Y-108523809D01*
X174093095Y-108523809D02*
X174140714Y-108619047D01*
X174140714Y-108619047D02*
X174140714Y-108857142D01*
X174140714Y-108857142D02*
X174093095Y-108952380D01*
X174093095Y-108952380D02*
X174045476Y-109000000D01*
X174045476Y-109000000D02*
X173950238Y-109047619D01*
X173950238Y-109047619D02*
X173664524Y-109047619D01*
X173664524Y-109047619D02*
X173569286Y-109000000D01*
X173569286Y-109000000D02*
X173521667Y-108952380D01*
%TO.C,C16*%
X168902142Y-105777380D02*
X168854523Y-105825000D01*
X168854523Y-105825000D02*
X168711666Y-105872619D01*
X168711666Y-105872619D02*
X168616428Y-105872619D01*
X168616428Y-105872619D02*
X168473571Y-105825000D01*
X168473571Y-105825000D02*
X168378333Y-105729761D01*
X168378333Y-105729761D02*
X168330714Y-105634523D01*
X168330714Y-105634523D02*
X168283095Y-105444047D01*
X168283095Y-105444047D02*
X168283095Y-105301190D01*
X168283095Y-105301190D02*
X168330714Y-105110714D01*
X168330714Y-105110714D02*
X168378333Y-105015476D01*
X168378333Y-105015476D02*
X168473571Y-104920238D01*
X168473571Y-104920238D02*
X168616428Y-104872619D01*
X168616428Y-104872619D02*
X168711666Y-104872619D01*
X168711666Y-104872619D02*
X168854523Y-104920238D01*
X168854523Y-104920238D02*
X168902142Y-104967857D01*
X169854523Y-105872619D02*
X169283095Y-105872619D01*
X169568809Y-105872619D02*
X169568809Y-104872619D01*
X169568809Y-104872619D02*
X169473571Y-105015476D01*
X169473571Y-105015476D02*
X169378333Y-105110714D01*
X169378333Y-105110714D02*
X169283095Y-105158333D01*
X170711666Y-104872619D02*
X170521190Y-104872619D01*
X170521190Y-104872619D02*
X170425952Y-104920238D01*
X170425952Y-104920238D02*
X170378333Y-104967857D01*
X170378333Y-104967857D02*
X170283095Y-105110714D01*
X170283095Y-105110714D02*
X170235476Y-105301190D01*
X170235476Y-105301190D02*
X170235476Y-105682142D01*
X170235476Y-105682142D02*
X170283095Y-105777380D01*
X170283095Y-105777380D02*
X170330714Y-105825000D01*
X170330714Y-105825000D02*
X170425952Y-105872619D01*
X170425952Y-105872619D02*
X170616428Y-105872619D01*
X170616428Y-105872619D02*
X170711666Y-105825000D01*
X170711666Y-105825000D02*
X170759285Y-105777380D01*
X170759285Y-105777380D02*
X170806904Y-105682142D01*
X170806904Y-105682142D02*
X170806904Y-105444047D01*
X170806904Y-105444047D02*
X170759285Y-105348809D01*
X170759285Y-105348809D02*
X170711666Y-105301190D01*
X170711666Y-105301190D02*
X170616428Y-105253571D01*
X170616428Y-105253571D02*
X170425952Y-105253571D01*
X170425952Y-105253571D02*
X170330714Y-105301190D01*
X170330714Y-105301190D02*
X170283095Y-105348809D01*
X170283095Y-105348809D02*
X170235476Y-105444047D01*
%TO.C,C13*%
X173982142Y-75932380D02*
X173934523Y-75980000D01*
X173934523Y-75980000D02*
X173791666Y-76027619D01*
X173791666Y-76027619D02*
X173696428Y-76027619D01*
X173696428Y-76027619D02*
X173553571Y-75980000D01*
X173553571Y-75980000D02*
X173458333Y-75884761D01*
X173458333Y-75884761D02*
X173410714Y-75789523D01*
X173410714Y-75789523D02*
X173363095Y-75599047D01*
X173363095Y-75599047D02*
X173363095Y-75456190D01*
X173363095Y-75456190D02*
X173410714Y-75265714D01*
X173410714Y-75265714D02*
X173458333Y-75170476D01*
X173458333Y-75170476D02*
X173553571Y-75075238D01*
X173553571Y-75075238D02*
X173696428Y-75027619D01*
X173696428Y-75027619D02*
X173791666Y-75027619D01*
X173791666Y-75027619D02*
X173934523Y-75075238D01*
X173934523Y-75075238D02*
X173982142Y-75122857D01*
X174934523Y-76027619D02*
X174363095Y-76027619D01*
X174648809Y-76027619D02*
X174648809Y-75027619D01*
X174648809Y-75027619D02*
X174553571Y-75170476D01*
X174553571Y-75170476D02*
X174458333Y-75265714D01*
X174458333Y-75265714D02*
X174363095Y-75313333D01*
X175267857Y-75027619D02*
X175886904Y-75027619D01*
X175886904Y-75027619D02*
X175553571Y-75408571D01*
X175553571Y-75408571D02*
X175696428Y-75408571D01*
X175696428Y-75408571D02*
X175791666Y-75456190D01*
X175791666Y-75456190D02*
X175839285Y-75503809D01*
X175839285Y-75503809D02*
X175886904Y-75599047D01*
X175886904Y-75599047D02*
X175886904Y-75837142D01*
X175886904Y-75837142D02*
X175839285Y-75932380D01*
X175839285Y-75932380D02*
X175791666Y-75980000D01*
X175791666Y-75980000D02*
X175696428Y-76027619D01*
X175696428Y-76027619D02*
X175410714Y-76027619D01*
X175410714Y-76027619D02*
X175315476Y-75980000D01*
X175315476Y-75980000D02*
X175267857Y-75932380D01*
%TO.C,U1*%
X156083095Y-91117619D02*
X156083095Y-91927142D01*
X156083095Y-91927142D02*
X156130714Y-92022380D01*
X156130714Y-92022380D02*
X156178333Y-92070000D01*
X156178333Y-92070000D02*
X156273571Y-92117619D01*
X156273571Y-92117619D02*
X156464047Y-92117619D01*
X156464047Y-92117619D02*
X156559285Y-92070000D01*
X156559285Y-92070000D02*
X156606904Y-92022380D01*
X156606904Y-92022380D02*
X156654523Y-91927142D01*
X156654523Y-91927142D02*
X156654523Y-91117619D01*
X157654523Y-92117619D02*
X157083095Y-92117619D01*
X157368809Y-92117619D02*
X157368809Y-91117619D01*
X157368809Y-91117619D02*
X157273571Y-91260476D01*
X157273571Y-91260476D02*
X157178333Y-91355714D01*
X157178333Y-91355714D02*
X157083095Y-91403333D01*
%TO.C,C4*%
X143978333Y-88632380D02*
X143930714Y-88680000D01*
X143930714Y-88680000D02*
X143787857Y-88727619D01*
X143787857Y-88727619D02*
X143692619Y-88727619D01*
X143692619Y-88727619D02*
X143549762Y-88680000D01*
X143549762Y-88680000D02*
X143454524Y-88584761D01*
X143454524Y-88584761D02*
X143406905Y-88489523D01*
X143406905Y-88489523D02*
X143359286Y-88299047D01*
X143359286Y-88299047D02*
X143359286Y-88156190D01*
X143359286Y-88156190D02*
X143406905Y-87965714D01*
X143406905Y-87965714D02*
X143454524Y-87870476D01*
X143454524Y-87870476D02*
X143549762Y-87775238D01*
X143549762Y-87775238D02*
X143692619Y-87727619D01*
X143692619Y-87727619D02*
X143787857Y-87727619D01*
X143787857Y-87727619D02*
X143930714Y-87775238D01*
X143930714Y-87775238D02*
X143978333Y-87822857D01*
X144835476Y-88060952D02*
X144835476Y-88727619D01*
X144597381Y-87680000D02*
X144359286Y-88394285D01*
X144359286Y-88394285D02*
X144978333Y-88394285D01*
%TO.C,U4*%
X173863095Y-87092619D02*
X173863095Y-87902142D01*
X173863095Y-87902142D02*
X173910714Y-87997380D01*
X173910714Y-87997380D02*
X173958333Y-88045000D01*
X173958333Y-88045000D02*
X174053571Y-88092619D01*
X174053571Y-88092619D02*
X174244047Y-88092619D01*
X174244047Y-88092619D02*
X174339285Y-88045000D01*
X174339285Y-88045000D02*
X174386904Y-87997380D01*
X174386904Y-87997380D02*
X174434523Y-87902142D01*
X174434523Y-87902142D02*
X174434523Y-87092619D01*
X175339285Y-87425952D02*
X175339285Y-88092619D01*
X175101190Y-87045000D02*
X174863095Y-87759285D01*
X174863095Y-87759285D02*
X175482142Y-87759285D01*
%TO.C,C8*%
X168743333Y-85457380D02*
X168695714Y-85505000D01*
X168695714Y-85505000D02*
X168552857Y-85552619D01*
X168552857Y-85552619D02*
X168457619Y-85552619D01*
X168457619Y-85552619D02*
X168314762Y-85505000D01*
X168314762Y-85505000D02*
X168219524Y-85409761D01*
X168219524Y-85409761D02*
X168171905Y-85314523D01*
X168171905Y-85314523D02*
X168124286Y-85124047D01*
X168124286Y-85124047D02*
X168124286Y-84981190D01*
X168124286Y-84981190D02*
X168171905Y-84790714D01*
X168171905Y-84790714D02*
X168219524Y-84695476D01*
X168219524Y-84695476D02*
X168314762Y-84600238D01*
X168314762Y-84600238D02*
X168457619Y-84552619D01*
X168457619Y-84552619D02*
X168552857Y-84552619D01*
X168552857Y-84552619D02*
X168695714Y-84600238D01*
X168695714Y-84600238D02*
X168743333Y-84647857D01*
X169314762Y-84981190D02*
X169219524Y-84933571D01*
X169219524Y-84933571D02*
X169171905Y-84885952D01*
X169171905Y-84885952D02*
X169124286Y-84790714D01*
X169124286Y-84790714D02*
X169124286Y-84743095D01*
X169124286Y-84743095D02*
X169171905Y-84647857D01*
X169171905Y-84647857D02*
X169219524Y-84600238D01*
X169219524Y-84600238D02*
X169314762Y-84552619D01*
X169314762Y-84552619D02*
X169505238Y-84552619D01*
X169505238Y-84552619D02*
X169600476Y-84600238D01*
X169600476Y-84600238D02*
X169648095Y-84647857D01*
X169648095Y-84647857D02*
X169695714Y-84743095D01*
X169695714Y-84743095D02*
X169695714Y-84790714D01*
X169695714Y-84790714D02*
X169648095Y-84885952D01*
X169648095Y-84885952D02*
X169600476Y-84933571D01*
X169600476Y-84933571D02*
X169505238Y-84981190D01*
X169505238Y-84981190D02*
X169314762Y-84981190D01*
X169314762Y-84981190D02*
X169219524Y-85028809D01*
X169219524Y-85028809D02*
X169171905Y-85076428D01*
X169171905Y-85076428D02*
X169124286Y-85171666D01*
X169124286Y-85171666D02*
X169124286Y-85362142D01*
X169124286Y-85362142D02*
X169171905Y-85457380D01*
X169171905Y-85457380D02*
X169219524Y-85505000D01*
X169219524Y-85505000D02*
X169314762Y-85552619D01*
X169314762Y-85552619D02*
X169505238Y-85552619D01*
X169505238Y-85552619D02*
X169600476Y-85505000D01*
X169600476Y-85505000D02*
X169648095Y-85457380D01*
X169648095Y-85457380D02*
X169695714Y-85362142D01*
X169695714Y-85362142D02*
X169695714Y-85171666D01*
X169695714Y-85171666D02*
X169648095Y-85076428D01*
X169648095Y-85076428D02*
X169600476Y-85028809D01*
X169600476Y-85028809D02*
X169505238Y-84981190D01*
D13*
%TO.C,U3*%
X145975000Y-72700000D02*
X145975000Y-61631000D01*
X145975000Y-72700000D02*
X145975000Y-44190000D01*
X196925000Y-72700000D02*
X145975000Y-72700000D01*
X196925000Y-72700000D02*
X145975000Y-72700000D01*
X196925000Y-72700000D02*
X196925000Y-67330000D01*
X196925000Y-67330000D02*
X196925000Y-49640000D01*
X145975000Y-61631000D02*
X145975000Y-54920000D01*
X145975000Y-54920000D02*
X145975000Y-44190000D01*
X196925000Y-49640000D02*
X196925000Y-44190000D01*
X145975000Y-44190000D02*
X196925000Y-44190000D01*
X145975000Y-44190000D02*
X196925000Y-44190000D01*
X196925000Y-44190000D02*
X196925000Y-72700000D01*
D14*
X196925000Y-67330000D02*
X190500000Y-67330000D01*
X190500000Y-67330000D02*
X190500000Y-49530000D01*
X190500000Y-49530000D02*
X196925000Y-49530000D01*
X196925000Y-49530000D02*
X196925000Y-67330000D01*
X145975000Y-61631000D02*
X149860000Y-61631000D01*
X149860000Y-61631000D02*
X149860000Y-55245000D01*
X149860000Y-55245000D02*
X145975000Y-55245000D01*
X145975000Y-55245000D02*
X145975000Y-61631000D01*
D15*
X156035000Y-73270000D02*
G75*
G03*
X156035000Y-73270000I-100000J0D01*
G01*
D16*
%TO.C,J6*%
X182910000Y-95715000D02*
X182910000Y-93515000D01*
X180310000Y-95715000D02*
X182910000Y-95715000D01*
X180310000Y-95215000D02*
X180310000Y-95715000D01*
X180310000Y-93515000D02*
X180310000Y-95215000D01*
X182910000Y-93515000D02*
X180310000Y-93515000D01*
%TO.C,J5*%
X175290000Y-100160000D02*
X175290000Y-97960000D01*
X172690000Y-100160000D02*
X175290000Y-100160000D01*
X172690000Y-99660000D02*
X172690000Y-100160000D01*
X172690000Y-97960000D02*
X172690000Y-99660000D01*
X175290000Y-97960000D02*
X172690000Y-97960000D01*
%TO.C,C5*%
X161345000Y-90070000D02*
X161345000Y-90515000D01*
X161345000Y-90070000D02*
X167585000Y-90070000D01*
X161345000Y-92365000D02*
X161345000Y-92810000D01*
X161345000Y-92810000D02*
X167585000Y-92810000D01*
X167585000Y-90070000D02*
X167585000Y-90515000D01*
X167585000Y-92365000D02*
X167585000Y-92810000D01*
%TO.C,C12*%
X177745000Y-92810000D02*
X177745000Y-92365000D01*
X177745000Y-92810000D02*
X171505000Y-92810000D01*
X177745000Y-90515000D02*
X177745000Y-90070000D01*
X177745000Y-90070000D02*
X171505000Y-90070000D01*
X171505000Y-92810000D02*
X171505000Y-92365000D01*
X171505000Y-90515000D02*
X171505000Y-90070000D01*
%TO.C,R5*%
X160425000Y-81915000D02*
X161195000Y-81915000D01*
X161195000Y-80545000D02*
X161195000Y-83285000D01*
X161195000Y-83285000D02*
X167735000Y-83285000D01*
X167735000Y-80545000D02*
X161195000Y-80545000D01*
X167735000Y-83285000D02*
X167735000Y-80545000D01*
X168505000Y-81915000D02*
X167735000Y-81915000D01*
%TO.C,C7*%
X145265000Y-107410000D02*
X145890000Y-107410000D01*
X145265000Y-107410000D02*
X145265000Y-103370000D01*
X147480000Y-107410000D02*
X148105000Y-107410000D01*
X148105000Y-107410000D02*
X148105000Y-103370000D01*
X145265000Y-103370000D02*
X145890000Y-103370000D01*
X147480000Y-103370000D02*
X148105000Y-103370000D01*
%TO.C,Y1*%
X180300000Y-85075000D02*
X174050000Y-85075000D01*
X180300000Y-80025000D02*
X174050000Y-80025000D01*
X180300000Y-85075000D02*
G75*
G03*
X180300000Y-80025000I0J2525000D01*
G01*
X174050000Y-80025000D02*
G75*
G03*
X174050000Y-85075000I0J-2525000D01*
G01*
%TO.C,R4*%
X155805000Y-100330000D02*
X155035000Y-100330000D01*
X155035000Y-101700000D02*
X155035000Y-98960000D01*
X155035000Y-98960000D02*
X148495000Y-98960000D01*
X148495000Y-101700000D02*
X155035000Y-101700000D01*
X148495000Y-98960000D02*
X148495000Y-101700000D01*
X147725000Y-100330000D02*
X148495000Y-100330000D01*
%TO.C,J1*%
X172055000Y-94150000D02*
X172055000Y-95850000D01*
X172055000Y-95850000D02*
X172055000Y-96350000D01*
X172055000Y-96350000D02*
X174655000Y-96350000D01*
X174655000Y-94150000D02*
X172055000Y-94150000D01*
X174655000Y-96350000D02*
X174655000Y-94150000D01*
%TO.C,C10*%
X161345000Y-100865000D02*
X161345000Y-101310000D01*
X161345000Y-100865000D02*
X167585000Y-100865000D01*
X161345000Y-103160000D02*
X161345000Y-103605000D01*
X161345000Y-103605000D02*
X167585000Y-103605000D01*
X167585000Y-100865000D02*
X167585000Y-101310000D01*
X167585000Y-103160000D02*
X167585000Y-103605000D01*
%TO.C,J2*%
X182910000Y-90000000D02*
X182910000Y-87800000D01*
X182910000Y-87800000D02*
X180310000Y-87800000D01*
X180310000Y-90000000D02*
X182910000Y-90000000D01*
X180310000Y-89500000D02*
X180310000Y-90000000D01*
X180310000Y-87800000D02*
X180310000Y-89500000D01*
%TO.C,C9*%
X145935000Y-83670000D02*
X145935000Y-84295000D01*
X145935000Y-83670000D02*
X149975000Y-83670000D01*
X145935000Y-85885000D02*
X145935000Y-86510000D01*
X145935000Y-86510000D02*
X149975000Y-86510000D01*
X149975000Y-83670000D02*
X149975000Y-84295000D01*
X149975000Y-85885000D02*
X149975000Y-86510000D01*
%TO.C,U2*%
X148430000Y-102760000D02*
X148430000Y-113160000D01*
X148430000Y-113160000D02*
X158930000Y-113160000D01*
X151430000Y-102820000D02*
X151430000Y-113100000D01*
X151430000Y-113100000D02*
X155930000Y-113100000D01*
X152680000Y-102820000D02*
X151430000Y-102820000D01*
X155930000Y-102820000D02*
X154680000Y-102820000D01*
X155930000Y-113100000D02*
X155930000Y-102820000D01*
X158930000Y-102760000D02*
X148430000Y-102760000D01*
X158930000Y-113160000D02*
X158930000Y-102760000D01*
X152680000Y-102820000D02*
G75*
G03*
X154680000Y-102820000I1000000J0D01*
G01*
%TO.C,C6*%
X159905000Y-110340000D02*
X159905000Y-110965000D01*
X159905000Y-110340000D02*
X163945000Y-110340000D01*
X159905000Y-112555000D02*
X159905000Y-113180000D01*
X159905000Y-113180000D02*
X163945000Y-113180000D01*
X163945000Y-110340000D02*
X163945000Y-110965000D01*
X163945000Y-112555000D02*
X163945000Y-113180000D01*
%TO.C,C11*%
X159965000Y-80110000D02*
X159965000Y-79665000D01*
X159965000Y-80110000D02*
X153725000Y-80110000D01*
X159965000Y-77815000D02*
X159965000Y-77370000D01*
X159965000Y-77370000D02*
X153725000Y-77370000D01*
X153725000Y-80110000D02*
X153725000Y-79665000D01*
X153725000Y-77815000D02*
X153725000Y-77370000D01*
%TO.C,R2*%
X155805000Y-96520000D02*
X155035000Y-96520000D01*
X155035000Y-97890000D02*
X155035000Y-95150000D01*
X155035000Y-95150000D02*
X148495000Y-95150000D01*
X148495000Y-97890000D02*
X155035000Y-97890000D01*
X148495000Y-95150000D02*
X148495000Y-97890000D01*
X147725000Y-96520000D02*
X148495000Y-96520000D01*
%TO.C,C1*%
X163715000Y-93830000D02*
X163715000Y-94455000D01*
X163715000Y-93830000D02*
X167755000Y-93830000D01*
X163715000Y-96045000D02*
X163715000Y-96670000D01*
X163715000Y-96670000D02*
X167755000Y-96670000D01*
X167755000Y-93830000D02*
X167755000Y-94455000D01*
X167755000Y-96045000D02*
X167755000Y-96670000D01*
%TO.C,J3*%
X175290000Y-112860000D02*
X175290000Y-111160000D01*
X175290000Y-111160000D02*
X175290000Y-110660000D01*
X175290000Y-110660000D02*
X172690000Y-110660000D01*
X172690000Y-112860000D02*
X175290000Y-112860000D01*
X172690000Y-110660000D02*
X172690000Y-112860000D01*
%TO.C,J4*%
X175290000Y-106510000D02*
X175290000Y-104810000D01*
X175290000Y-104810000D02*
X175290000Y-104310000D01*
X175290000Y-104310000D02*
X172690000Y-104310000D01*
X172690000Y-106510000D02*
X175290000Y-106510000D01*
X172690000Y-104310000D02*
X172690000Y-106510000D01*
%TO.C,C15*%
X165155000Y-110390000D02*
X165155000Y-110835000D01*
X165155000Y-110390000D02*
X171395000Y-110390000D01*
X165155000Y-112685000D02*
X165155000Y-113130000D01*
X165155000Y-113130000D02*
X171395000Y-113130000D01*
X171395000Y-110390000D02*
X171395000Y-110835000D01*
X171395000Y-112685000D02*
X171395000Y-113130000D01*
%TO.C,R6*%
X155805000Y-81915000D02*
X155035000Y-81915000D01*
X155035000Y-83285000D02*
X155035000Y-80545000D01*
X155035000Y-80545000D02*
X148495000Y-80545000D01*
X148495000Y-83285000D02*
X155035000Y-83285000D01*
X148495000Y-80545000D02*
X148495000Y-83285000D01*
X147725000Y-81915000D02*
X148495000Y-81915000D01*
%TO.C,R1*%
X169775000Y-99060000D02*
X169005000Y-99060000D01*
X169005000Y-100430000D02*
X169005000Y-97690000D01*
X169005000Y-97690000D02*
X162465000Y-97690000D01*
X162465000Y-100430000D02*
X169005000Y-100430000D01*
X162465000Y-97690000D02*
X162465000Y-100430000D01*
X161695000Y-99060000D02*
X162465000Y-99060000D01*
%TO.C,C14*%
X182340000Y-79525000D02*
X182340000Y-78900000D01*
X182340000Y-79525000D02*
X178300000Y-79525000D01*
X182340000Y-77310000D02*
X182340000Y-76685000D01*
X182340000Y-76685000D02*
X178300000Y-76685000D01*
X178300000Y-79525000D02*
X178300000Y-78900000D01*
X178300000Y-77310000D02*
X178300000Y-76685000D01*
%TO.C,C2*%
X152345000Y-92810000D02*
X152345000Y-92365000D01*
X152345000Y-92810000D02*
X146105000Y-92810000D01*
X152345000Y-90515000D02*
X152345000Y-90070000D01*
X152345000Y-90070000D02*
X146105000Y-90070000D01*
X146105000Y-92810000D02*
X146105000Y-92365000D01*
X146105000Y-90515000D02*
X146105000Y-90070000D01*
%TO.C,C3*%
X161345000Y-86895000D02*
X161345000Y-87340000D01*
X161345000Y-86895000D02*
X167585000Y-86895000D01*
X161345000Y-89190000D02*
X161345000Y-89635000D01*
X161345000Y-89635000D02*
X167585000Y-89635000D01*
X167585000Y-86895000D02*
X167585000Y-87340000D01*
X167585000Y-89190000D02*
X167585000Y-89635000D01*
%TO.C,R3*%
X169775000Y-108585000D02*
X169005000Y-108585000D01*
X169005000Y-109955000D02*
X169005000Y-107215000D01*
X169005000Y-107215000D02*
X162465000Y-107215000D01*
X162465000Y-109955000D02*
X169005000Y-109955000D01*
X162465000Y-107215000D02*
X162465000Y-109955000D01*
X161695000Y-108585000D02*
X162465000Y-108585000D01*
%TO.C,C16*%
X161345000Y-104040000D02*
X161345000Y-104485000D01*
X161345000Y-104040000D02*
X167585000Y-104040000D01*
X161345000Y-106335000D02*
X161345000Y-106780000D01*
X161345000Y-106780000D02*
X167585000Y-106780000D01*
X167585000Y-104040000D02*
X167585000Y-104485000D01*
X167585000Y-106335000D02*
X167585000Y-106780000D01*
%TO.C,C13*%
X172625000Y-76685000D02*
X172625000Y-77310000D01*
X172625000Y-76685000D02*
X176665000Y-76685000D01*
X172625000Y-78900000D02*
X172625000Y-79525000D01*
X172625000Y-79525000D02*
X176665000Y-79525000D01*
X176665000Y-76685000D02*
X176665000Y-77310000D01*
X176665000Y-78900000D02*
X176665000Y-79525000D01*
%TO.C,U1*%
X156845000Y-84475000D02*
X153395000Y-84475000D01*
X156845000Y-84475000D02*
X158795000Y-84475000D01*
X156845000Y-94595000D02*
X154895000Y-94595000D01*
X156845000Y-94595000D02*
X158795000Y-94595000D01*
%TO.C,C4*%
X152345000Y-89635000D02*
X152345000Y-89190000D01*
X152345000Y-89635000D02*
X146105000Y-89635000D01*
X152345000Y-87340000D02*
X152345000Y-86895000D01*
X152345000Y-86895000D02*
X146105000Y-86895000D01*
X146105000Y-89635000D02*
X146105000Y-89190000D01*
X146105000Y-87340000D02*
X146105000Y-86895000D01*
D10*
%TO.C,U4*%
X172655000Y-85820000D02*
X172655000Y-86045000D01*
X172655000Y-85820000D02*
X176005000Y-85820000D01*
X172655000Y-86045000D02*
X171430000Y-86045000D01*
X172655000Y-89170000D02*
X172655000Y-88870000D01*
X172655000Y-89170000D02*
X176005000Y-89170000D01*
X176005000Y-85820000D02*
X176005000Y-86120000D01*
X176005000Y-89170000D02*
X176005000Y-88870000D01*
D16*
%TO.C,C8*%
X167755000Y-86510000D02*
X167755000Y-85885000D01*
X167755000Y-86510000D02*
X163715000Y-86510000D01*
X167755000Y-84295000D02*
X167755000Y-83670000D01*
X167755000Y-83670000D02*
X163715000Y-83670000D01*
X163715000Y-86510000D02*
X163715000Y-85885000D01*
X163715000Y-84295000D02*
X163715000Y-83670000D01*
%TD*%
M02*
