M48
; DRILL file {KiCad 7.0.1} date Mon Oct 30 13:33:20 2023
; FORMAT={-:-/ absolute / inch / decimal}
; #@! TF.CreationDate,2023-10-30T13:33:20+01:00
; #@! TF.GenerationSoftware,Kicad,Pcbnew,7.0.1
; #@! TF.FileFunction,Plated,1,2,PTH
FMAT,2
INCH
; #@! TA.AperFunction,Plated,PTH,ViaDrill
T1C0.0157
; #@! TA.AperFunction,Plated,PTH,ComponentDrill
T2C0.0315
; #@! TA.AperFunction,Plated,PTH,ComponentDrill
T3C0.0354
; #@! TA.AperFunction,Plated,PTH,ComponentDrill
T4C0.0402
%
G90
G05
T1
X6.7768Y-3.375
X6.875Y-3.5448
T2
X5.775Y-3.225
X5.775Y-3.8
X5.775Y-3.95
X5.775Y-4.1
X5.775Y-4.1984
X5.7758Y-3.35
X5.7766Y-3.475
X5.7766Y-3.6
X5.8742Y-3.35
X5.9004Y-4.1004
X5.9004Y-4.2004
X5.9004Y-4.3004
X5.9004Y-4.4004
X5.9734Y-3.475
X5.9734Y-3.6
X6.0766Y-3.1
X6.175Y-3.225
X6.175Y-3.8
X6.175Y-3.95
X6.2004Y-4.1004
X6.2004Y-4.2004
X6.2004Y-4.3004
X6.2004Y-4.4004
X6.2734Y-3.1
X6.275Y-3.225
X6.325Y-3.9
X6.325Y-4.275
X6.3258Y-4.4
X6.3766Y-3.475
X6.3766Y-3.6
X6.3766Y-4.025
X6.3766Y-4.15
X6.4242Y-4.4
X6.4758Y-3.35
X6.4758Y-3.75
X6.5266Y-4.4
X6.5734Y-3.475
X6.5734Y-3.6
X6.5734Y-4.025
X6.5734Y-4.15
X6.5742Y-3.35
X6.5742Y-3.75
X6.675Y-3.225
X6.7234Y-4.4
X6.725Y-3.9
X6.725Y-4.275
X6.7766Y-3.6
X6.8266Y-3.075
X6.8793Y-3.25
X6.925Y-3.075
X6.9734Y-3.6
X7.05Y-3.075
X7.0715Y-3.25
X7.1484Y-3.075
T3
X6.825Y-3.75
X6.85Y-3.9
X6.85Y-4.15
X6.85Y-4.4
X7.15Y-3.5
X7.15Y-3.725
T4
X6.1392Y-1.8
X6.1392Y-2.8
X6.2392Y-1.8
X6.2392Y-2.8
X6.3392Y-1.8
X6.3392Y-2.8
X6.4392Y-1.8
X6.4392Y-2.8
X6.5392Y-1.8
X6.5392Y-2.8
X6.6392Y-1.8
X6.6392Y-2.8
X6.7392Y-1.8
X6.7392Y-2.8
X6.8392Y-1.8
X6.8392Y-2.8
X6.9392Y-1.8
X6.9392Y-2.8
X7.0392Y-1.8
X7.0392Y-2.8
X7.1392Y-1.8
X7.1392Y-2.8
X7.2392Y-1.8
X7.2392Y-2.8
X7.3392Y-1.8
X7.3392Y-2.8
X7.4392Y-1.8
X7.4392Y-2.8
X7.5392Y-1.8
X7.5392Y-2.8
T0
M30
