%TF.GenerationSoftware,KiCad,Pcbnew,7.0.1*%
%TF.CreationDate,2023-09-14T17:26:19+02:00*%
%TF.ProjectId,schematic,73636865-6d61-4746-9963-2e6b69636164,rev?*%
%TF.SameCoordinates,Original*%
%TF.FileFunction,Soldermask,Top*%
%TF.FilePolarity,Negative*%
%FSLAX46Y46*%
G04 Gerber Fmt 4.6, Leading zero omitted, Abs format (unit mm)*
G04 Created by KiCad (PCBNEW 7.0.1) date 2023-09-14 17:26:19*
%MOMM*%
%LPD*%
G01*
G04 APERTURE LIST*
G04 Aperture macros list*
%AMRoundRect*
0 Rectangle with rounded corners*
0 $1 Rounding radius*
0 $2 $3 $4 $5 $6 $7 $8 $9 X,Y pos of 4 corners*
0 Add a 4 corners polygon primitive as box body*
4,1,4,$2,$3,$4,$5,$6,$7,$8,$9,$2,$3,0*
0 Add four circle primitives for the rounded corners*
1,1,$1+$1,$2,$3*
1,1,$1+$1,$4,$5*
1,1,$1+$1,$6,$7*
1,1,$1+$1,$8,$9*
0 Add four rect primitives between the rounded corners*
20,1,$1+$1,$2,$3,$4,$5,0*
20,1,$1+$1,$4,$5,$6,$7,0*
20,1,$1+$1,$6,$7,$8,$9,0*
20,1,$1+$1,$8,$9,$2,$3,0*%
G04 Aperture macros list end*
%ADD10C,1.600000*%
%ADD11O,1.600000X1.600000*%
%ADD12C,1.500000*%
%ADD13C,1.800000*%
%ADD14R,2.400000X1.600000*%
%ADD15O,2.400000X1.600000*%
%ADD16RoundRect,0.102000X1.000000X-1.000000X1.000000X1.000000X-1.000000X1.000000X-1.000000X-1.000000X0*%
%ADD17C,2.204000*%
%ADD18RoundRect,0.150000X-0.725000X-0.150000X0.725000X-0.150000X0.725000X0.150000X-0.725000X0.150000X0*%
%ADD19R,1.400000X0.300000*%
G04 APERTURE END LIST*
D10*
%TO.C,C5*%
X161965000Y-91440000D03*
X166965000Y-91440000D03*
%TD*%
%TO.C,C12*%
X177125000Y-91440000D03*
X172125000Y-91440000D03*
%TD*%
%TO.C,R5*%
X159385000Y-81915000D03*
D11*
X169545000Y-81915000D03*
%TD*%
D10*
%TO.C,C7*%
X146685000Y-106640000D03*
X146685000Y-104140000D03*
%TD*%
D12*
%TO.C,Y1*%
X179615000Y-82550000D03*
X174735000Y-82550000D03*
%TD*%
D10*
%TO.C,R4*%
X156845000Y-100330000D03*
D11*
X146685000Y-100330000D03*
%TD*%
D13*
%TO.C,J1*%
X173355000Y-95250000D03*
%TD*%
D10*
%TO.C,C10*%
X161965000Y-102235000D03*
X166965000Y-102235000D03*
%TD*%
D13*
%TO.C,J2*%
X180340000Y-87630000D03*
%TD*%
D10*
%TO.C,C9*%
X146705000Y-85090000D03*
X149205000Y-85090000D03*
%TD*%
D14*
%TO.C,U2*%
X149870000Y-104150000D03*
D15*
X149870000Y-106690000D03*
X149870000Y-109230000D03*
X149870000Y-111770000D03*
X157490000Y-111770000D03*
X157490000Y-109230000D03*
X157490000Y-106690000D03*
X157490000Y-104150000D03*
%TD*%
D10*
%TO.C,C6*%
X166330000Y-110490000D03*
X163830000Y-110490000D03*
%TD*%
%TO.C,C11*%
X159345000Y-78740000D03*
X154345000Y-78740000D03*
%TD*%
%TO.C,R2*%
X156845000Y-96520000D03*
D11*
X146685000Y-96520000D03*
%TD*%
D10*
%TO.C,C1*%
X162600000Y-95670000D03*
X165100000Y-95670000D03*
%TD*%
D13*
%TO.C,J3*%
X173355000Y-109855000D03*
%TD*%
%TO.C,J4*%
X173355000Y-102870000D03*
%TD*%
D10*
%TO.C,R6*%
X156845000Y-81915000D03*
D11*
X146685000Y-81915000D03*
%TD*%
D10*
%TO.C,R1*%
X170815000Y-99060000D03*
D11*
X160655000Y-99060000D03*
%TD*%
D10*
%TO.C,C14*%
X181570000Y-78105000D03*
X179070000Y-78105000D03*
%TD*%
%TO.C,C2*%
X151725000Y-91440000D03*
X146725000Y-91440000D03*
%TD*%
%TO.C,C3*%
X161965000Y-88265000D03*
X166965000Y-88265000D03*
%TD*%
%TO.C,R3*%
X160655000Y-106680000D03*
D11*
X170815000Y-106680000D03*
%TD*%
D10*
%TO.C,C13*%
X173395000Y-78105000D03*
X175895000Y-78105000D03*
%TD*%
D16*
%TO.C,U3*%
X155935000Y-71120000D03*
D17*
X158475000Y-71120000D03*
X161015000Y-71120000D03*
X163555000Y-71120000D03*
X166095000Y-71120000D03*
X168635000Y-71120000D03*
X171175000Y-71120000D03*
X173715000Y-71120000D03*
X176255000Y-71120000D03*
X178795000Y-71120000D03*
X181335000Y-71120000D03*
X183875000Y-71120000D03*
X186415000Y-71120000D03*
X188955000Y-71120000D03*
X191495000Y-71120000D03*
X191495000Y-45720000D03*
X188955000Y-45720000D03*
X186415000Y-45720000D03*
X183875000Y-45720000D03*
X181335000Y-45720000D03*
X178795000Y-45720000D03*
X176255000Y-45720000D03*
X173715000Y-45720000D03*
X171175000Y-45720000D03*
X168635000Y-45720000D03*
X166095000Y-45720000D03*
X163555000Y-45720000D03*
X161015000Y-45720000D03*
X158475000Y-45720000D03*
X155935000Y-45720000D03*
%TD*%
D18*
%TO.C,U1*%
X154270000Y-85090000D03*
X154270000Y-86360000D03*
X154270000Y-87630000D03*
X154270000Y-88900000D03*
X154270000Y-90170000D03*
X154270000Y-91440000D03*
X154270000Y-92710000D03*
X154270000Y-93980000D03*
X159420000Y-93980000D03*
X159420000Y-92710000D03*
X159420000Y-91440000D03*
X159420000Y-90170000D03*
X159420000Y-88900000D03*
X159420000Y-87630000D03*
X159420000Y-86360000D03*
X159420000Y-85090000D03*
%TD*%
D10*
%TO.C,C4*%
X151725000Y-88265000D03*
X146725000Y-88265000D03*
%TD*%
D19*
%TO.C,U4*%
X172130000Y-86495000D03*
X172130000Y-86995000D03*
X172130000Y-87495000D03*
X172130000Y-87995000D03*
X172130000Y-88495000D03*
X176530000Y-88495000D03*
X176530000Y-87995000D03*
X176530000Y-87495000D03*
X176530000Y-86995000D03*
X176530000Y-86495000D03*
%TD*%
D10*
%TO.C,C8*%
X166985000Y-85090000D03*
X164485000Y-85090000D03*
%TD*%
M02*
