M48
; DRILL file {KiCad 7.0.1} date Thu Sep 14 16:42:14 2023
; FORMAT={-:-/ absolute / inch / decimal}
; #@! TF.CreationDate,2023-09-14T16:42:14+02:00
; #@! TF.GenerationSoftware,Kicad,Pcbnew,7.0.1
; #@! TF.FileFunction,NonPlated,1,2,NPTH
FMAT,2
INCH
; #@! TA.AperFunction,NonPlated,NPTH,ComponentDrill
T1C0.0315
%
G90
G05
T1
X6.975Y-3.85
X6.975Y-3.95
X6.975Y-4.05
X6.975Y-4.15
X6.975Y-4.25
X6.975Y-4.35
X7.075Y-3.85
X7.075Y-3.95
X7.075Y-4.05
X7.075Y-4.15
X7.075Y-4.25
X7.075Y-4.35
X7.175Y-3.85
X7.175Y-3.95
X7.175Y-4.05
X7.175Y-4.15
X7.175Y-4.25
X7.175Y-4.35
X7.275Y-2.95
X7.275Y-3.05
X7.275Y-3.15
X7.275Y-3.25
X7.275Y-3.35
X7.275Y-3.45
X7.275Y-3.55
X7.275Y-3.65
X7.275Y-3.75
X7.275Y-3.85
X7.275Y-3.95
X7.275Y-4.05
X7.275Y-4.15
X7.275Y-4.25
X7.275Y-4.35
X7.375Y-2.95
X7.375Y-3.05
X7.375Y-3.15
X7.375Y-3.25
X7.375Y-3.35
X7.375Y-3.45
X7.375Y-3.55
X7.375Y-3.65
X7.375Y-3.75
X7.375Y-3.85
X7.375Y-3.95
X7.375Y-4.05
X7.375Y-4.15
X7.375Y-4.25
X7.375Y-4.35
X7.475Y-2.95
X7.475Y-3.05
X7.475Y-3.15
X7.475Y-3.25
X7.475Y-3.35
X7.475Y-3.45
X7.475Y-3.55
X7.475Y-3.65
X7.475Y-3.75
X7.475Y-3.85
X7.475Y-3.95
X7.475Y-4.05
X7.475Y-4.15
X7.475Y-4.25
X7.475Y-4.35
X7.575Y-2.95
X7.575Y-3.05
X7.575Y-3.15
X7.575Y-3.25
X7.575Y-3.35
X7.575Y-3.45
X7.575Y-3.55
X7.575Y-3.65
X7.575Y-3.75
X7.575Y-3.85
X7.575Y-3.95
X7.575Y-4.05
X7.575Y-4.15
X7.575Y-4.25
X7.575Y-4.35
X7.675Y-2.95
X7.675Y-3.05
X7.675Y-3.15
X7.675Y-3.25
X7.675Y-3.35
X7.675Y-3.45
X7.675Y-3.55
X7.675Y-3.65
X7.675Y-3.75
X7.675Y-3.85
X7.675Y-3.95
X7.675Y-4.05
X7.675Y-4.15
X7.675Y-4.25
X7.675Y-4.35
X7.775Y-2.95
X7.775Y-3.05
X7.775Y-3.15
X7.775Y-3.25
X7.775Y-3.35
X7.775Y-3.45
X7.775Y-3.55
X7.775Y-3.65
X7.775Y-3.75
X7.775Y-3.85
X7.775Y-3.95
X7.775Y-4.05
X7.775Y-4.15
X7.775Y-4.25
X7.775Y-4.35
T0
M30
